<svg width="60" height="40" viewBox="0 0 60 40" fill="none" xmlns="http://www.w3.org/2000/svg">
<path fill-rule="evenodd" clip-rule="evenodd" d="M0.240186 0.017646C-0.19855 0.455979 -0.0168505 2.75763 0.627354 4.92673C1.41982 7.59541 3.8524 10.3157 6.2725 11.2399C7.25231 11.6141 8.05363 12.0037 8.05363 12.1052C8.05363 12.2072 7.66929 12.8304 7.19953 13.4899C4.17471 17.7383 4.75002 24.6267 8.48431 28.8691C12.2263 33.1198 18.1929 34.2133 24.0133 31.7138C24.2603 31.6078 24.9444 32.5067 25.5338 33.7113C26.1232 34.9159 27.2891 36.672 28.1247 37.6136L29.6444 39.3258L31.1725 37.5539C32.0133 36.5794 33.1599 34.8756 33.7207 33.7677C34.2815 32.6598 34.7658 31.7215 34.7968 31.6824C34.8274 31.6433 35.939 31.9801 37.266 32.4305C43.5598 34.5666 50.1691 31.5482 53.0694 25.2137C53.9533 23.2827 54.0569 22.597 53.9046 19.6919C53.7587 16.9168 53.5259 16.0124 52.4812 14.1607L51.2319 11.9473L52.6532 11.4332C54.494 10.7677 57.0607 8.43582 58.0184 6.5584C58.8543 4.91948 59.4579 1.32982 59.0679 0.313762C58.8713 -0.198701 58.5341 0.031747 57.5015 1.38542C55.0528 4.59597 54.4698 4.76034 45.5214 4.76034C37.9695 4.76034 37.5904 4.79862 35.7246 5.75183C33.8561 6.70625 31.523 8.90839 30.1689 10.9957L29.5215 11.9936L28.8765 10.7459C27.8576 8.77625 24.3767 5.9013 22.0916 5.14228C20.3382 4.56011 19.0591 4.50049 13.3406 4.73416C6.86313 4.99885 6.58433 4.9775 4.83624 4.07827C3.84233 3.56702 2.45643 2.3894 1.75662 1.46116C1.05682 0.532929 0.374345 -0.116916 0.240186 0.017646ZM4.16383 5.26475C5.48729 5.97986 8.81306 6.11926 16.7155 5.79051C20.9216 5.61566 22.9594 6.28847 25.6877 8.75329C27.6658 10.5405 28.4704 12.1637 29.1452 15.7283L29.6621 18.4583L29.9663 16.2424C30.7877 10.2593 35.1707 5.88962 40.5451 5.69583C41.6204 5.65675 44.8567 5.76835 47.7373 5.9436L52.9747 6.26188L55.2913 5.02907C56.5652 4.35102 57.6078 3.9562 57.6078 4.15119C57.6078 5.02342 56.6599 6.87184 55.6684 7.93343C54.4291 9.26091 51.0075 10.9953 49.6171 11.001C48.6832 11.005 48.6857 11.0163 49.9205 12.5754C53.0771 16.5607 53.6685 20.9964 51.621 25.3245C50.4084 27.8877 48.9173 29.4025 46.1725 30.8589C44.8708 31.5502 43.8213 31.7408 41.2912 31.7464C38.5125 31.7525 37.7974 31.6006 36.1037 30.6454C35.0232 30.0362 34.1002 29.5374 34.0523 29.5374C34.0047 29.5374 33.7348 30.3077 33.4528 31.2497C32.9758 32.8443 30.5452 36.9387 29.8043 37.3964C29.3184 37.697 26.261 32.9333 25.7703 31.1119L25.3468 29.5395L23.2551 30.5994C17.4145 33.559 10.6107 31.3045 7.67936 25.4385C5.60493 21.2869 6.19797 16.4072 9.2232 12.7382L10.4866 11.2064L9.0556 10.9079C7.2797 10.5372 5.32775 9.56791 4.08648 8.43985C3.0128 7.46447 1.60756 4.91424 1.60756 3.94169C1.60756 3.34785 1.66195 3.34704 2.25015 3.93525C2.60348 4.28857 3.46443 4.88685 4.16383 5.26475ZM17.4589 15.3678C17.8255 15.7731 18.1256 16.4757 18.1256 16.9297C18.1256 18.8225 15.5134 19.2423 14.6427 17.4893C14.1722 16.5418 14.1516 16.5579 13.7036 18.2206C12.0039 24.5337 20.5405 27.915 23.3784 22.0523C25.1917 18.3064 22.7688 14.6309 18.4862 14.6309C16.8707 14.6309 16.8231 14.6651 17.4589 15.3678ZM39.2144 15.3678C39.9976 16.2331 40.0798 17.4942 39.3977 18.1762C38.6084 18.9655 37.1339 18.7423 36.6025 17.7532C36.1203 16.8552 36.111 16.8588 35.5715 18.1774C33.8456 22.3948 38.9815 26.6508 43.0731 24.3939C47.9621 21.6974 45.9723 14.6373 40.3223 14.6325C38.6286 14.6309 38.5778 14.6643 39.2144 15.3678Z" fill="white"/>
</svg>
