<svg width="219" height="60" viewBox="0 0 219 60" fill="none" xmlns="http://www.w3.org/2000/svg">
<path fill-rule="evenodd" clip-rule="evenodd" d="M130.456 15.8015C130.018 16.2398 130.199 18.5414 130.844 20.7105C131.636 23.3792 134.069 26.0995 136.489 27.0237C137.469 27.3979 138.27 27.7875 138.27 27.8891C138.27 27.991 137.886 28.6142 137.416 29.2738C134.391 33.5221 134.966 40.4106 138.701 44.6529C142.443 48.9037 148.409 49.9971 154.23 47.4976C154.477 47.3917 155.161 48.2905 155.75 49.4951C156.339 50.6997 157.505 52.4559 158.341 53.3974L159.861 55.1096L161.389 53.3378C162.23 52.3632 163.376 50.6594 163.937 49.5515C164.498 48.4436 164.982 47.5053 165.013 47.4662C165.044 47.4271 166.155 47.7639 167.482 48.2143C173.776 50.3504 180.385 47.332 183.286 40.9976C184.17 39.0665 184.273 38.3808 184.121 35.4757C183.975 32.7006 183.742 31.7962 182.697 29.9445L181.448 27.7311L182.87 27.2171C184.71 26.5515 187.277 24.2196 188.235 22.3422C189.071 20.7033 189.674 17.1136 189.284 16.0976C189.088 15.5851 188.75 15.8156 187.718 17.1692C185.269 20.3798 184.686 20.5442 175.738 20.5442C168.186 20.5442 167.807 20.5824 165.941 21.5356C164.072 22.4901 161.739 24.6922 160.385 26.7795L159.738 27.7775L159.093 26.5297C158.074 24.5601 154.593 21.6851 152.308 20.9261C150.555 20.3439 149.275 20.2843 143.557 20.518C137.079 20.7827 136.801 20.7613 135.053 19.8621C134.059 19.3508 132.673 18.1732 131.973 17.245C131.273 16.3167 130.591 15.6669 130.456 15.8015ZM134.38 21.0486C135.704 21.7637 139.029 21.9031 146.932 21.5743C151.138 21.3995 153.176 22.0723 155.904 24.5371C157.882 26.3243 158.687 27.9475 159.361 31.5122L159.878 34.2421L160.183 32.0262C161.004 26.0431 165.387 21.6734 170.761 21.4796C171.837 21.4406 175.073 21.5522 177.954 21.7274L183.191 22.0457L185.508 20.8129C186.781 20.1348 187.824 19.74 187.824 19.935C187.824 20.8072 186.876 22.6557 185.885 23.7172C184.645 25.0447 181.224 26.7791 179.833 26.7848C178.9 26.7888 178.902 26.8001 180.137 28.3592C183.293 32.3445 183.885 36.7802 181.837 41.1083C180.625 43.6715 179.134 45.1863 176.389 46.6427C175.087 47.334 174.038 47.5246 171.508 47.5302C168.729 47.5363 168.014 47.3844 166.32 46.4292C165.24 45.82 164.317 45.3213 164.269 45.3213C164.221 45.3213 163.951 46.0916 163.669 47.0335C163.192 48.6281 160.762 52.7226 160.021 53.1802C159.535 53.4808 156.477 48.7171 155.987 46.8957L155.563 45.3233L153.471 46.3832C147.631 49.3428 140.827 47.0883 137.896 41.2224C135.821 37.0707 136.414 32.191 139.44 28.522L140.703 26.9902L139.272 26.6917C137.496 26.321 135.544 25.3517 134.303 24.2237C133.229 23.2483 131.824 20.6981 131.824 19.7255C131.824 19.1317 131.878 19.1309 132.466 19.7191C132.82 20.0724 133.681 20.6707 134.38 21.0486ZM147.675 31.1516C148.042 31.5569 148.342 32.2595 148.342 32.7135C148.342 34.6063 145.73 35.0261 144.859 33.2731C144.388 32.3256 144.368 32.3417 143.92 34.0044C142.22 40.3175 150.757 43.6989 153.595 37.8362C155.408 34.0902 152.985 30.4147 148.703 30.4147C147.087 30.4147 147.039 30.449 147.675 31.1516ZM169.431 31.1516C170.214 32.017 170.296 33.278 169.614 33.9601C168.825 34.7493 167.35 34.5261 166.819 33.537C166.337 32.639 166.327 32.6426 165.788 33.9613C164.062 38.1786 169.198 42.4346 173.289 40.1777C178.178 37.4812 176.189 30.4212 170.539 30.4163C168.845 30.4147 168.794 30.4482 169.431 31.1516Z" fill="#43B6DB"/>
<path d="M15.8154 21.667C18.1514 21.667 19.9507 22.251 21.2134 23.419C22.4761 24.5555 23.3127 26.1023 23.723 28.0595L22.9654 27.8227L23.2969 27.0651C23.7072 26.2443 24.3228 25.4236 25.1436 24.6028C25.9959 23.7505 27.0061 23.056 28.1741 22.5193C29.3421 21.9511 30.589 21.667 31.9148 21.667C34.093 21.667 35.7818 22.1405 36.9814 23.0876C38.181 24.003 39.0175 25.2499 39.491 26.8283C39.9646 28.3751 40.2013 30.1113 40.2013 32.037V44.5851C40.2013 45.2796 39.9803 45.8636 39.5384 46.3371C39.0964 46.779 38.5282 47 37.8337 47C37.1708 47 36.6026 46.779 36.1291 46.3371C35.6871 45.8636 35.4662 45.2796 35.4662 44.5851V32.0843C35.4662 30.9795 35.3083 29.9693 34.9927 29.0538C34.7085 28.1384 34.1877 27.4123 33.4301 26.8757C32.704 26.3075 31.6938 26.0233 30.3996 26.0233C29.1684 26.0233 28.0636 26.3075 27.085 26.8757C26.138 27.4123 25.3961 28.1384 24.8595 29.0538C24.3228 29.9693 24.0545 30.9795 24.0545 32.0843V44.5851C24.0545 45.2796 23.8335 45.8636 23.3916 46.3371C22.9496 46.779 22.3814 47 21.6869 47C20.9924 47 20.4242 46.779 19.9823 46.3371C19.5403 45.8636 19.3194 45.2796 19.3194 44.5851V32.037C19.3194 30.9321 19.1615 29.9219 18.8458 29.0065C18.5617 28.091 18.0567 27.365 17.3306 26.8283C16.6045 26.2917 15.5944 26.0233 14.3001 26.0233C13.069 26.0233 11.9799 26.2917 11.0329 26.8283C10.0858 27.365 9.344 28.091 8.80735 29.0065C8.30227 29.9219 8.04973 30.9321 8.04973 32.037V44.5851C8.04973 45.2796 7.81297 45.8636 7.33946 46.3371C6.89751 46.779 6.34508 47 5.68216 47C4.98768 47 4.41946 46.779 3.97751 46.3371C3.53557 45.8636 3.3146 45.2796 3.3146 44.5851V24.5081C3.3146 23.8136 3.53557 23.2454 3.97751 22.8035C4.41946 22.3299 4.98768 22.0932 5.68216 22.0932C6.34508 22.0932 6.89751 22.3299 7.33946 22.8035C7.81297 23.2454 8.04973 23.8136 8.04973 24.5081V27.3018L7.15006 27.8227C7.37103 27.1282 7.73406 26.4179 8.23914 25.6919C8.74422 24.9658 9.37557 24.3029 10.1332 23.7031C10.9224 23.1033 11.7905 22.614 12.7375 22.2352C13.6845 21.8564 14.7105 21.667 15.8154 21.667ZM51.2789 44.5851C51.2789 45.2796 51.058 45.8636 50.616 46.3371C50.1741 46.779 49.6059 47 48.9114 47C48.2484 47 47.6802 46.779 47.2067 46.3371C46.7648 45.8636 46.5438 45.2796 46.5438 44.5851V24.3187C46.5438 23.6242 46.7648 23.056 47.2067 22.614C47.6802 22.1405 48.2484 21.9038 48.9114 21.9038C49.6059 21.9038 50.1741 22.1405 50.616 22.614C51.058 23.056 51.2789 23.6242 51.2789 24.3187V44.5851ZM48.864 18.7786C47.9486 18.7786 47.2856 18.6208 46.8753 18.3051C46.4649 17.9578 46.2597 17.3896 46.2597 16.6004V15.8428C46.2597 15.0536 46.4807 14.5012 46.9226 14.1855C47.3646 13.8698 48.0275 13.712 48.9114 13.712C49.8584 13.712 50.5371 13.8856 50.9475 14.2329C51.3579 14.5485 51.563 15.0852 51.563 15.8428V16.6004C51.563 17.4212 51.3421 17.9894 50.9001 18.3051C50.4897 18.6208 49.811 18.7786 48.864 18.7786ZM70.4807 21.525C72.7219 21.525 74.4582 21.9985 75.6893 22.9455C76.9204 23.861 77.7728 25.1079 78.2463 26.6863C78.7514 28.2331 79.0039 29.9693 79.0039 31.8949V44.5851C79.0039 45.2796 78.7671 45.8636 78.2936 46.3371C77.8517 46.779 77.2992 47 76.6363 47C75.9418 47 75.3736 46.779 74.9317 46.3371C74.4897 45.8636 74.2688 45.2796 74.2688 44.5851V31.9423C74.2688 30.8058 74.1109 29.7957 73.7952 28.9118C73.4796 27.9963 72.9271 27.2703 72.1379 26.7336C71.3803 26.1654 70.307 25.8813 68.9181 25.8813C67.6238 25.8813 66.4874 26.1654 65.5088 26.7336C64.5302 27.2703 63.7568 27.9963 63.1885 28.9118C62.6519 29.7957 62.3836 30.8058 62.3836 31.9423V44.5851C62.3836 45.2796 62.1468 45.8636 61.6733 46.3371C61.2314 46.779 60.6789 47 60.016 47C59.3215 47 58.7533 46.779 58.3114 46.3371C57.8694 45.8636 57.6484 45.2796 57.6484 44.5851V24.5081C57.6484 23.8136 57.8694 23.2454 58.3114 22.8035C58.7533 22.3299 59.3215 22.0932 60.016 22.0932C60.6789 22.0932 61.2314 22.3299 61.6733 22.8035C62.1468 23.2454 62.3836 23.8136 62.3836 24.5081V27.1598L61.5312 27.6333C61.7522 26.9388 62.131 26.2443 62.6677 25.5498C63.2359 24.8238 63.9146 24.1609 64.7038 23.5611C65.493 22.9297 66.3769 22.4404 67.3555 22.0932C68.3341 21.7144 69.3758 21.525 70.4807 21.525ZM97.1794 47.4735C94.5593 47.4735 92.2864 46.9369 90.3608 45.8636C88.4352 44.7587 86.9357 43.2592 85.8624 41.3652C84.8207 39.4396 84.2998 37.2456 84.2998 34.7833C84.2998 32.0054 84.8523 29.6378 85.9571 27.6806C87.0936 25.6919 88.5615 24.1766 90.3608 23.1349C92.1602 22.0616 94.07 21.525 96.0903 21.525C97.6371 21.525 99.105 21.8406 100.494 22.472C101.883 23.0718 103.114 23.9241 104.187 25.029C105.292 26.1023 106.16 27.3808 106.792 28.8644C107.423 30.3165 107.755 31.9107 107.786 33.6469C107.755 34.2783 107.502 34.7991 107.029 35.2095C106.555 35.6199 106.003 35.8251 105.371 35.8251H86.9515L85.8151 31.8002H103.619L102.72 32.6525V31.4688C102.656 30.3639 102.293 29.4011 101.63 28.5803C100.968 27.728 100.147 27.0809 99.1682 26.6389C98.1896 26.1654 97.1636 25.9286 96.0903 25.9286C95.1433 25.9286 94.2279 26.0865 93.344 26.4022C92.4916 26.6863 91.7182 27.1598 91.0237 27.8227C90.3608 28.4856 89.8242 29.3695 89.4138 30.4744C89.035 31.5477 88.8456 32.8893 88.8456 34.4992C88.8456 36.2355 89.2086 37.7507 89.9347 39.045C90.6607 40.3392 91.6393 41.3494 92.8704 42.0755C94.1016 42.7699 95.459 43.1172 96.9427 43.1172C98.1107 43.1172 99.0735 43.0067 99.8311 42.7857C100.589 42.5332 101.22 42.2333 101.725 41.8861C102.23 41.5388 102.672 41.2074 103.051 40.8917C103.525 40.6076 103.998 40.4655 104.472 40.4655C105.04 40.4655 105.513 40.6707 105.892 41.0811C106.271 41.4599 106.46 41.9176 106.46 42.4543C106.46 43.1488 106.113 43.7801 105.419 44.3483C104.566 45.1691 103.382 45.8951 101.867 46.5265C100.384 47.1578 98.8209 47.4735 97.1794 47.4735ZM115.506 47C114.811 47 114.243 46.779 113.801 46.3371C113.359 45.8636 113.138 45.2796 113.138 44.5851V24.5081C113.138 23.8136 113.359 23.2454 113.801 22.8035C114.243 22.3299 114.811 22.0932 115.506 22.0932C116.169 22.0932 116.721 22.3299 117.163 22.8035C117.637 23.2454 117.873 23.8136 117.873 24.5081V29.8115L117.4 27.7753C117.652 26.8915 118.031 26.0707 118.536 25.3131C119.073 24.5555 119.704 23.8925 120.43 23.3243C121.156 22.7561 121.961 22.3142 122.845 21.9985C123.761 21.6828 124.708 21.525 125.686 21.525C126.507 21.525 127.217 21.7459 127.817 22.1879C128.417 22.6298 128.717 23.1823 128.717 23.8452C128.717 24.6975 128.496 25.3289 128.054 25.7392C127.612 26.118 127.123 26.3075 126.586 26.3075C126.113 26.3075 125.655 26.2128 125.213 26.0233C124.771 25.8024 124.25 25.6919 123.65 25.6919C122.987 25.6919 122.309 25.8655 121.614 26.2128C120.92 26.56 120.288 27.0809 119.72 27.7753C119.152 28.4383 118.694 29.2275 118.347 30.1429C118.031 31.0584 117.873 32.0843 117.873 33.2208V44.5851C117.873 45.2796 117.637 45.8636 117.163 46.3371C116.721 46.779 116.169 47 115.506 47Z" fill="#43B6DB"/>
<path d="M213.128 21.7144C213.823 21.7144 214.391 21.9511 214.833 22.4246C215.275 22.8666 215.496 23.4348 215.496 24.1293V44.5851C215.496 45.2796 215.275 45.8636 214.833 46.3371C214.391 46.779 213.823 47 213.128 47C212.465 47 211.897 46.779 211.424 46.3371C210.982 45.8636 210.761 45.2796 210.761 44.5851V41.1758L211.755 41.3178C211.755 41.8861 211.518 42.5174 211.045 43.2119C210.603 43.9064 209.987 44.5851 209.198 45.248C208.409 45.8794 207.478 46.416 206.404 46.8579C205.331 47.2683 204.179 47.4735 202.948 47.4735C200.77 47.4735 198.812 46.9211 197.076 45.8162C195.34 44.6798 193.967 43.133 192.957 41.1758C191.946 39.2186 191.441 36.9931 191.441 34.4992C191.441 31.9423 191.946 29.701 192.957 27.7753C193.967 25.8182 195.324 24.2871 197.029 23.1823C198.765 22.0774 200.691 21.525 202.806 21.525C204.163 21.525 205.41 21.7459 206.546 22.1879C207.714 22.6298 208.725 23.198 209.577 23.8925C210.429 24.587 211.076 25.3289 211.518 26.118C211.992 26.8757 212.229 27.6017 212.229 28.2962L210.761 28.4383V24.1293C210.761 23.4664 210.982 22.8982 211.424 22.4246C211.897 21.9511 212.465 21.7144 213.128 21.7144ZM203.469 43.1172C204.952 43.1172 206.262 42.7384 207.399 41.9808C208.535 41.2231 209.419 40.1972 210.05 38.9029C210.682 37.5771 210.997 36.1092 210.997 34.4992C210.997 32.8577 210.682 31.3898 210.05 30.0956C209.419 28.8013 208.535 27.7753 207.399 27.0177C206.262 26.2601 204.952 25.8813 203.469 25.8813C202.017 25.8813 200.722 26.2601 199.586 27.0177C198.481 27.7753 197.597 28.8013 196.934 30.0956C196.303 31.3898 195.987 32.8577 195.987 34.4992C195.987 36.1092 196.303 37.5771 196.934 38.9029C197.597 40.1972 198.481 41.2231 199.586 41.9808C200.722 42.7384 202.017 43.1172 203.469 43.1172Z" fill="#43B6DB"/>
</svg>
