<svg width="510" height="340" viewBox="0 0 510 340" fill="none" xmlns="http://www.w3.org/2000/svg">
<path d="M453.526 102.184L447.018 133.702L442.829 129.615L435.703 134.702L430.256 127.936L418.043 136.816L407.605 119.361L395.964 126.181L391.347 119.816L376.563 128.146L372.116 118.62L382.479 68.4287L438.035 79.9003L453.526 102.184Z" fill="#EBEBEB"/>
<path d="M438.036 79.9004L453.526 102.184L434.255 98.206L438.036 79.9004Z" fill="#DBDBDB"/>
<path d="M445.631 139.998L436.091 186.238L361.257 170.789L370.729 124.923L375.176 134.443L389.966 126.113L394.577 132.478L406.225 125.664L416.656 143.12L428.876 134.239L434.316 140.998L441.449 135.918L445.631 139.998Z" fill="#EBEBEB"/>
<path d="M338.524 134.579L262.262 139.298L256.204 41.4053L312.834 37.8965L333.622 55.3385L338.524 134.579Z" fill="#EBEBEB"/>
<path d="M312.834 37.8965L333.622 55.3385L313.983 56.5557L312.834 37.8965Z" fill="#DBDBDB"/>
<path d="M291.72 103.768L291.421 101.558C290.652 96.9811 291.904 91.8607 295.882 86.5091C299.472 81.7491 301.417 78.3491 301.199 74.4867C300.954 70.1347 298.064 67.3875 292.686 67.6051C289.612 67.7648 286.659 68.8557 284.22 70.7331L281.874 65.4767C284.594 63.2667 289.354 61.6347 293.876 61.3967C303.688 60.8527 308.462 66.6599 308.836 73.1403C309.162 78.9407 306.156 83.2995 302.335 88.3927C298.826 93.0371 297.677 96.8655 298.173 101.197L298.384 103.414L291.72 103.768ZM290.51 115.81C290.333 112.655 292.339 110.316 295.324 110.153C298.309 109.99 300.485 112.084 300.662 115.246C300.825 118.231 298.996 120.638 295.841 120.815C292.828 120.985 290.652 118.796 290.482 115.81H290.51Z" fill="#DBDBDB"/>
<path d="M100.966 87.1144L93.2958 83.6396L92.2282 85.9856C92.0706 86.3209 91.8246 86.6069 91.5167 86.813C91.2088 87.019 90.8507 87.1374 90.4806 87.1552C90.0591 87.1691 89.6389 87.21 89.2226 87.2777C88.8572 87.3319 88.4839 87.2859 88.1426 87.1446C87.8013 87.0033 87.5047 86.7719 87.2846 86.4752L85.7818 84.374L78.9342 89.2837L80.437 91.3848C80.646 91.6881 80.7691 92.0423 80.793 92.4099C80.8169 92.7774 80.7409 93.1446 80.573 93.4725C80.3791 93.8464 80.2044 94.23 80.0494 94.6216C79.9147 94.967 79.6884 95.2692 79.3949 95.4956C79.1014 95.7221 78.7517 95.8642 78.3834 95.9068L75.8198 96.1585L76.6426 104.543L79.2198 104.284C79.5894 104.255 79.9601 104.327 80.292 104.492C80.6238 104.657 80.9044 104.91 81.1034 105.223C81.2122 105.4 81.3278 105.57 81.4502 105.74C81.5726 105.91 81.695 106.073 81.8242 106.236C82.0589 106.522 82.2098 106.867 82.2602 107.233C82.3106 107.599 82.2586 107.972 82.1098 108.31L81.0354 110.676L88.7126 114.158L89.7802 111.798C89.9393 111.463 90.1868 111.178 90.4959 110.973C90.805 110.768 91.1641 110.652 91.5346 110.636C91.9514 110.618 92.3669 110.578 92.779 110.513C93.1444 110.459 93.5177 110.505 93.859 110.646C94.2004 110.788 94.4969 111.019 94.717 111.316L96.2198 113.417L103.074 108.507L101.571 106.406C101.356 106.106 101.229 105.751 101.205 105.382C101.181 105.013 101.261 104.644 101.435 104.318C101.625 103.947 101.795 103.565 101.945 103.176C102.076 102.828 102.301 102.524 102.596 102.297C102.89 102.07 103.242 101.929 103.611 101.891L106.189 101.632L105.359 93.2481L102.782 93.4996C102.415 93.5319 102.045 93.462 101.715 93.2976C101.385 93.1331 101.107 92.8807 100.912 92.5681C100.796 92.3913 100.681 92.2212 100.558 92.0512C100.436 91.8812 100.313 91.7112 100.184 91.5548C99.9511 91.2658 99.8014 90.9187 99.751 90.5508C99.7007 90.1829 99.7517 89.8083 99.8986 89.4673L100.966 87.1144ZM96.6142 94.8733C97.4094 95.9829 97.8577 97.3035 97.9023 98.6679C97.9469 100.032 97.5859 101.379 96.8649 102.539C96.1439 103.698 95.0953 104.617 93.8518 105.181C92.6082 105.744 91.2256 105.926 89.8787 105.703C88.5317 105.481 87.2811 104.864 86.2849 103.93C85.2887 102.997 84.5916 101.789 84.2819 100.459C83.9722 99.1297 84.0638 97.7381 84.545 96.4606C85.0262 95.183 85.8755 94.0769 86.9854 93.282C88.4734 92.2165 90.3236 91.7855 92.1293 92.0839C93.935 92.3823 95.5482 93.3856 96.6142 94.8733Z" fill="#EBEBEB"/>
<path d="M447.698 198.362L442.585 201.314L443.489 202.878C443.624 203.102 443.691 203.361 443.683 203.622C443.675 203.884 443.591 204.138 443.442 204.353C443.285 204.598 443.136 204.85 443 205.115C442.888 205.349 442.711 205.547 442.491 205.684C442.27 205.822 442.015 205.893 441.755 205.89H439.96V211.799H441.769C442.029 211.796 442.284 211.867 442.504 212.005C442.725 212.142 442.901 212.34 443.013 212.574C443.149 212.84 443.299 213.091 443.455 213.336C443.604 213.551 443.688 213.805 443.697 214.067C443.705 214.328 443.638 214.587 443.503 214.812L442.598 216.376L447.712 219.327L448.623 217.756C448.755 217.533 448.947 217.351 449.176 217.231C449.405 217.111 449.664 217.057 449.922 217.076H450.792C451.051 217.058 451.309 217.112 451.538 217.232C451.767 217.352 451.959 217.534 452.091 217.756L453.002 219.334L458.109 216.382L457.205 214.812C457.076 214.586 457.013 214.329 457.023 214.069C457.032 213.81 457.114 213.558 457.259 213.343C457.416 213.098 457.565 212.84 457.701 212.581C457.813 212.347 457.989 212.149 458.21 212.011C458.431 211.874 458.686 211.803 458.946 211.806H460.754V205.897H458.932C458.672 205.9 458.417 205.829 458.196 205.691C457.976 205.554 457.799 205.356 457.688 205.122C457.552 204.863 457.402 204.605 457.246 204.36C457.101 204.144 457.019 203.893 457.009 203.633C456.999 203.374 457.063 203.117 457.191 202.891L458.096 201.32L452.989 198.369L452.078 199.92C451.946 200.142 451.754 200.324 451.525 200.444C451.295 200.564 451.037 200.618 450.779 200.6H450.344H449.908C449.649 200.617 449.39 200.563 449.16 200.443C448.93 200.323 448.737 200.142 448.603 199.92L447.698 198.362ZM450.344 204.006C451.302 204.005 452.239 204.288 453.036 204.819C453.833 205.351 454.455 206.107 454.822 206.992C455.189 207.877 455.286 208.851 455.099 209.791C454.913 210.731 454.451 211.594 453.774 212.271C453.096 212.949 452.233 213.41 451.293 213.597C450.353 213.783 449.379 213.687 448.494 213.32C447.609 212.952 446.853 212.331 446.322 211.534C445.79 210.736 445.507 209.799 445.509 208.841C445.508 208.206 445.632 207.576 445.875 206.989C446.117 206.401 446.473 205.868 446.922 205.418C447.371 204.968 447.905 204.612 448.492 204.368C449.079 204.125 449.708 204 450.344 204V204.006Z" fill="#EBEBEB"/>
<path d="M116.484 61.9888L111.799 65.5792L112.88 67.014C113.041 67.2184 113.14 67.4649 113.166 67.724C113.191 67.9832 113.141 68.2442 113.023 68.476C112.893 68.7407 112.779 69.0132 112.683 69.292C112.599 69.5376 112.448 69.7549 112.248 69.9195C112.047 70.0841 111.804 70.1894 111.547 70.2236L109.752 70.4548L110.514 76.3096L112.309 76.0784C112.57 76.0419 112.836 76.0801 113.077 76.1883C113.318 76.2966 113.523 76.4706 113.669 76.6904C113.833 76.9269 114.01 77.154 114.199 77.3704C114.374 77.563 114.491 77.8019 114.534 78.0587C114.577 78.3154 114.546 78.5793 114.444 78.8188L113.764 80.4916L119.204 82.756L119.884 81.0832C119.985 80.8432 120.152 80.6364 120.364 80.4861C120.577 80.3359 120.828 80.2483 121.088 80.2332L121.523 80.1856L121.951 80.1176C122.203 80.0702 122.463 80.0926 122.702 80.1825C122.942 80.2724 123.153 80.4264 123.311 80.6276L124.42 82.076L129.105 78.4856L128.01 77.0508C127.852 76.8435 127.755 76.5962 127.729 76.3367C127.704 76.0772 127.752 75.8158 127.867 75.582C127.996 75.3191 128.11 75.0489 128.207 74.7728C128.291 74.5272 128.442 74.3099 128.642 74.1453C128.843 73.9807 129.086 73.8754 129.343 73.8412L131.138 73.61L130.376 67.7552L128.581 67.9864C128.32 68.0235 128.055 67.9864 127.814 67.8794C127.574 67.7723 127.368 67.5997 127.221 67.3812C127.051 67.1364 126.874 66.9052 126.684 66.7012C126.526 66.5044 126.423 66.2686 126.387 66.0185C126.351 65.7685 126.383 65.5134 126.48 65.28L127.16 63.6072L121.72 61.3428L121.04 63.0156C120.937 63.2546 120.771 63.4606 120.558 63.6106C120.346 63.7607 120.096 63.8489 119.836 63.8656L119.401 63.9064L119 63.92C118.748 63.9674 118.488 63.9449 118.249 63.855C118.009 63.7651 117.798 63.6112 117.64 63.41L116.484 61.9888ZM119.836 67.2452C120.784 67.1234 121.746 67.2849 122.601 67.7093C123.457 68.1337 124.167 68.8019 124.644 69.6297C125.12 70.4576 125.34 71.4079 125.277 72.3608C125.214 73.3137 124.87 74.2266 124.288 74.9842C123.707 75.7418 122.914 76.3102 122.01 76.6178C121.106 76.9253 120.131 76.9582 119.208 76.7123C118.285 76.4664 117.456 75.9526 116.824 75.2359C116.193 74.5192 115.788 73.6317 115.661 72.6852C115.576 72.0536 115.617 71.4114 115.781 70.7955C115.945 70.1797 116.229 69.6024 116.617 69.0969C117.005 68.5913 117.49 68.1674 118.042 67.8496C118.594 67.5319 119.204 67.3264 119.836 67.2452Z" fill="#EBEBEB"/>
<path d="M81.4776 215.411C81.7331 208.837 81.6423 202.255 81.2056 195.691C80.2326 182.137 78.1655 168.683 75.0244 155.462C73.2972 148.023 71.1756 140.706 68.9588 133.396C68.8908 133.172 68.5372 133.233 68.5984 133.464C75.446 159.236 81.0628 185.824 80.6752 212.616C80.5664 220.096 79.696 227.474 78.9888 234.927C78.9888 235.124 79.2948 235.206 79.3424 235.002C80.75 228.603 81.2124 221.925 81.4776 215.411Z" fill="#EBEBEB"/>
<path d="M68.5985 133.443C68.5985 133.443 58.2353 159.759 60.5541 165.92C62.8729 172.081 67.6601 173.4 67.6601 173.4C67.6601 173.4 61.3157 182.458 65.7493 190.951C70.1829 199.444 80.0293 199.043 80.7093 208.672C80.6889 208.719 81.2329 168.457 68.5985 133.443Z" fill="#EBEBEB"/>
<path d="M79.56 192.093C79.5768 192.049 79.5768 192.001 79.56 191.957C78.1999 173.991 74.8287 156.234 69.5096 139.019C69.5096 138.971 69.4076 138.985 69.4212 139.019C71.4748 146.726 73.2882 154.464 74.8612 162.234C73.468 160.914 71.7659 159.965 69.9108 159.473C69.9108 159.473 69.8564 159.514 69.9108 159.528C71.8597 160.242 73.6119 161.407 75.0244 162.928C75.3236 164.458 75.6228 165.981 75.9016 167.511C73.5828 164.92 70.3732 163.635 67.1568 162.411C67.1495 162.414 67.1433 162.419 67.139 162.426C67.1346 162.433 67.1323 162.441 67.1323 162.448C67.1323 162.456 67.1346 162.464 67.139 162.471C67.1433 162.477 67.1495 162.483 67.1568 162.486C70.5092 163.846 73.8412 165.6 76.1124 168.49C76.9012 172.856 77.5948 177.237 78.1932 181.635C76.5189 179.881 74.3718 178.65 72.012 178.092C71.9372 178.092 71.8964 178.18 71.9712 178.201C74.3953 178.915 76.5594 180.318 78.2 182.24H78.2408C78.4448 183.781 78.6398 185.329 78.8256 186.884C77.5304 185.788 76.068 184.907 74.494 184.273C74.4532 184.273 74.426 184.321 74.494 184.334C76.1003 185.03 77.5712 186.004 78.8392 187.211C78.8392 187.211 78.8732 187.211 78.8936 187.211C79.0636 188.686 79.2336 190.162 79.3832 191.637C77.0482 188.815 74.0178 186.649 70.5908 185.354C70.5764 185.354 70.5626 185.36 70.5524 185.37C70.5422 185.38 70.5364 185.394 70.5364 185.409C70.5364 185.423 70.5422 185.437 70.5524 185.447C70.5626 185.457 70.5764 185.463 70.5908 185.463C73.9748 186.955 76.9472 189.243 79.254 192.134C79.2794 192.166 79.3137 192.189 79.3524 192.201C79.3912 192.213 79.4327 192.214 79.4716 192.202C79.696 194.466 79.9 196.731 80.0632 199.002C80.0632 199.036 80.1176 199.036 80.1176 199.002C79.9408 196.722 79.755 194.419 79.56 192.093Z" fill="white"/>
<path d="M71.2301 156.883C69.3532 155.715 67.2092 155.046 65.0012 154.938C64.9904 154.938 64.9801 154.943 64.9724 154.95C64.9648 154.958 64.9604 154.968 64.9604 154.979C64.9604 154.99 64.9648 155 64.9724 155.008C64.9801 155.016 64.9904 155.02 65.0012 155.02C67.136 155.425 69.2076 156.111 71.1621 157.06C71.2437 157.08 71.3049 156.938 71.2301 156.883Z" fill="white"/>
<path d="M72.4879 184.743C71.0454 183.915 69.4571 183.372 67.8095 183.145C67.7551 183.145 67.7483 183.219 67.8095 183.233C69.4184 183.556 70.9746 184.1 72.4335 184.851C72.4947 184.885 72.5491 184.777 72.4879 184.743Z" fill="white"/>
<path d="M108.732 166.376C104.348 169.406 100.321 172.924 96.7299 176.862C93.0259 181.031 90.1689 185.881 88.3183 191.142C84.3796 202.102 82.2618 213.633 82.0487 225.278C81.9166 231.726 82.535 238.168 83.8915 244.474C83.9025 244.52 83.9307 244.56 83.9703 244.585C84.0098 244.611 84.0577 244.62 84.1041 244.612C84.1504 244.603 84.1916 244.577 84.2191 244.538C84.2466 244.5 84.2584 244.453 84.2519 244.406C82.564 233.279 82.6282 221.956 84.4423 210.848C86.2239 199.968 89.0187 188.122 95.9411 179.276C99.7083 174.454 104.407 170.667 109.051 166.75C109.296 166.532 108.983 166.199 108.732 166.376Z" fill="#EBEBEB"/>
<path d="M83.5718 217.43C86.0673 213.394 88.9999 209.645 92.3166 206.251C97.505 201.063 101.871 197.377 102.551 193.95C103.231 190.523 97.3554 187.993 97.3554 187.993C97.3554 187.993 104.529 189.285 106.495 186.273C108.46 183.26 109.405 165.812 109.405 165.812C109.405 165.812 96.349 175.134 90.263 188.204C84.177 201.274 83.5718 217.43 83.5718 217.43Z" fill="#EBEBEB"/>
<path d="M104.72 182.178C103.86 182.051 102.989 182.021 102.122 182.09C102.02 182.09 102.027 182.267 102.122 182.274C102.979 182.274 103.843 182.233 104.7 182.274C104.709 182.271 104.718 182.266 104.725 182.259C104.732 182.251 104.737 182.242 104.739 182.232C104.741 182.223 104.741 182.212 104.737 182.203C104.734 182.193 104.728 182.185 104.72 182.178Z" fill="white"/>
<path d="M95.343 199.104C93.9643 199.132 92.6015 199.403 91.3174 199.906C91.3174 199.906 91.3174 199.974 91.3174 199.967C92.6774 199.648 93.9898 199.518 95.3362 199.287C95.3538 199.279 95.3688 199.267 95.3796 199.251C95.3904 199.235 95.3965 199.217 95.3972 199.197C95.3979 199.178 95.3932 199.159 95.3836 199.143C95.374 199.126 95.36 199.112 95.343 199.104Z" fill="white"/>
<path d="M92.5279 193.256C91.9555 193.252 91.384 193.302 90.8211 193.406C90.8107 193.41 90.8017 193.417 90.7954 193.426C90.789 193.435 90.7856 193.446 90.7856 193.457C90.7856 193.468 90.789 193.479 90.7954 193.488C90.8017 193.497 90.8107 193.504 90.8211 193.508C91.3911 193.541 91.963 193.516 92.5279 193.433C92.5514 193.433 92.5738 193.424 92.5904 193.407C92.607 193.39 92.6163 193.368 92.6163 193.345C92.6163 193.321 92.607 193.299 92.5904 193.282C92.5738 193.265 92.5514 193.256 92.5279 193.256Z" fill="white"/>
<path d="M45.2946 184.885C49.544 186.326 53.6161 188.245 57.4326 190.604C61.3925 193.12 64.8265 196.381 67.5442 200.206C73.2623 208.165 77.6403 217.006 80.505 226.379C82.1026 231.569 83.0885 236.927 83.4426 242.345C83.4352 242.38 83.4159 242.412 83.388 242.434C83.3602 242.457 83.3254 242.469 83.2896 242.469C83.2537 242.469 83.219 242.457 83.1911 242.434C83.1633 242.412 83.144 242.38 83.1366 242.345C81.9363 232.951 79.27 223.802 75.235 215.234C71.2706 206.836 66.2726 197.901 58.6294 192.338C54.4678 189.312 49.7894 187.327 45.1246 185.232C44.8798 185.151 45.0498 184.804 45.2946 184.885Z" fill="#EBEBEB"/>
<path d="M77.4588 220.388C74.5045 217.7 71.2642 215.345 67.796 213.364C62.3968 210.365 58.0108 208.393 56.6712 205.775C55.3316 203.157 59.5 199.757 59.5 199.757C59.5 199.757 53.992 202.477 51.7072 200.471C49.4224 198.465 44.6216 184.593 44.6216 184.593C44.6216 184.593 57.3444 189.115 65.28 198.288C73.2156 207.461 77.4588 220.388 77.4588 220.388Z" fill="#EBEBEB"/>
<path d="M66.8984 207.617C65.6475 207.53 64.3916 207.685 63.1992 208.073C63.1992 208.073 63.1992 208.134 63.1992 208.127C64.4157 207.919 65.6446 207.792 66.878 207.747C66.9664 207.747 66.9868 207.624 66.8984 207.617Z" fill="white"/>
<path d="M55.8006 193.066C55.23 193.019 54.6557 193.051 54.0938 193.161C54.0326 193.161 54.053 193.27 54.0938 193.263C54.6582 193.202 55.209 193.222 55.7666 193.208C55.7839 193.209 55.8009 193.204 55.8148 193.193C55.8286 193.183 55.8383 193.168 55.8423 193.151C55.8463 193.134 55.8444 193.116 55.8368 193.101C55.8292 193.085 55.8164 193.073 55.8006 193.066Z" fill="white"/>
<path d="M93.8673 259.883H65.1509L69.2445 229.888L70.2917 222.197H88.7265L89.7737 229.888L93.8673 259.883Z" fill="#DBDBDB"/>
<path d="M89.7733 229.888H69.2441L70.2913 222.197H88.7261L89.7733 229.888Z" fill="#C7C7C7"/>
<path d="M91.3581 219.531H67.6533V226.046H91.3581V219.531Z" fill="#DBDBDB"/>
<path d="M46.8931 259.882L98.5799 259.719L150.267 259.658L253.64 259.542L357.014 259.658L408.701 259.719L460.387 259.882L408.701 260.052L357.014 260.106L253.64 260.222L150.267 260.106L98.5799 260.045L46.8931 259.882Z" fill="#263238"/>
<path d="M255 310.563C362.686 310.563 449.983 300.998 449.983 289.198C449.983 277.398 362.686 267.832 255 267.832C147.314 267.832 60.0166 277.398 60.0166 289.198C60.0166 300.998 147.314 310.563 255 310.563Z" fill="#EBEBEB"/>
<path d="M209.61 285.662C208.025 286.199 162.595 286.342 160.854 285.267C160.174 284.859 159.786 278.243 159.494 270.232C159.433 268.505 159.385 266.717 159.344 264.908L155.72 240.673L186.095 240.476L188.958 264.718L188.843 270.049C188.843 270.049 206.264 277.767 208.046 279.168C209.827 280.568 211.194 285.124 209.61 285.662Z" fill="#EB9481"/>
<path d="M209.61 285.662C208.026 286.199 162.595 286.342 160.854 285.267C160.052 284.764 159.617 275.101 159.372 264.908L188.925 264.718L188.809 270.049C188.809 270.049 206.231 277.767 208.012 279.168C209.794 280.569 211.195 285.125 209.61 285.662Z" fill="white"/>
<path d="M209.61 285.662C208.026 286.199 162.595 286.342 160.854 285.267C160.174 284.859 159.787 278.243 159.494 270.232L188.782 270.049C188.782 270.049 206.203 277.767 207.985 279.168C209.767 280.568 211.195 285.124 209.61 285.662Z" fill="#A6A6A6"/>
<path d="M208.95 283.846C201.334 283.682 170.598 283.757 163.057 284.179C162.996 284.179 162.996 284.22 163.057 284.226C170.605 284.546 201.341 284.226 208.95 283.968C209.114 283.961 209.114 283.846 208.95 283.846Z" fill="#263238"/>
<path d="M205.081 277.543C204.234 277.524 203.393 277.681 202.61 278.004C201.827 278.327 201.119 278.809 200.532 279.419C199.462 280.509 198.857 281.972 198.846 283.499C198.846 283.547 198.927 283.547 198.934 283.499C199.187 281.995 199.92 280.613 201.023 279.559C202.125 278.505 203.54 277.836 205.054 277.651C205.069 277.655 205.084 277.653 205.097 277.645C205.109 277.637 205.118 277.625 205.122 277.611C205.126 277.596 205.123 277.581 205.116 277.568C205.108 277.555 205.096 277.546 205.081 277.543Z" fill="#263238"/>
<path d="M191.76 270.797C188.714 270.763 185.185 271.851 183.294 274.353C183.226 274.448 183.362 274.55 183.451 274.503C186.112 273.098 188.916 271.981 191.815 271.171C191.859 271.158 191.898 271.13 191.924 271.091C191.949 271.052 191.96 271.006 191.953 270.96C191.946 270.914 191.923 270.872 191.887 270.842C191.852 270.812 191.807 270.796 191.76 270.797Z" fill="#263238"/>
<path d="M194.127 271.701C191.074 271.701 187.544 272.762 185.661 275.258C185.586 275.36 185.722 275.462 185.817 275.414C188.475 274.004 191.277 272.885 194.174 272.075C194.219 272.063 194.257 272.035 194.282 271.997C194.308 271.959 194.319 271.913 194.313 271.868C194.307 271.822 194.285 271.78 194.251 271.75C194.217 271.719 194.173 271.702 194.127 271.701Z" fill="#263238"/>
<path d="M196.48 272.612C193.433 272.612 189.904 273.666 188.014 276.169C187.946 276.264 188.082 276.366 188.17 276.318C190.832 274.913 193.635 273.796 196.534 272.986C196.579 272.974 196.618 272.946 196.643 272.907C196.668 272.868 196.679 272.821 196.672 272.775C196.665 272.729 196.642 272.687 196.607 272.657C196.571 272.627 196.526 272.611 196.48 272.612Z" fill="#263238"/>
<path d="M198.839 273.523C195.786 273.489 192.257 274.577 190.373 277.08C190.298 277.175 190.441 277.277 190.529 277.229C193.19 275.823 195.994 274.706 198.893 273.897C198.938 273.885 198.977 273.857 199.002 273.818C199.028 273.779 199.038 273.732 199.032 273.686C199.025 273.64 199.002 273.598 198.966 273.568C198.931 273.538 198.885 273.522 198.839 273.523Z" fill="#263238"/>
<path d="M164.975 276.938C161.575 276.938 161.575 282.276 164.975 282.255C168.375 282.235 168.402 276.917 164.975 276.938Z" fill="#263238"/>
<path d="M195.031 262.651C193.487 261.372 191.542 262.651 190.597 263.963C189.024 266.283 188.086 268.974 187.877 271.77C187.877 271.831 187.925 271.858 187.972 271.858C187.984 271.916 188.01 271.969 188.047 272.015C188.084 272.06 188.132 272.096 188.186 272.12C188.24 272.143 188.299 272.153 188.357 272.149C188.416 272.145 188.473 272.127 188.523 272.096C190.685 270.593 193.188 269.247 194.827 267.118C195.758 265.881 196.52 263.841 195.031 262.651ZM191.318 269.138C190.271 269.906 189.189 270.62 188.169 271.43C188.713 269.906 189.183 268.37 189.876 266.901C190.197 266.197 190.565 265.515 190.978 264.861C191.658 263.848 194.623 261.291 194.935 264.602C195.112 266.418 192.562 268.227 191.318 269.138Z" fill="#263238"/>
<path d="M180.288 272.925C182.94 273.319 185.681 272.558 188.285 272.143C188.341 272.128 188.394 272.1 188.438 272.062C188.482 272.023 188.516 271.975 188.538 271.921C188.559 271.866 188.568 271.808 188.563 271.749C188.558 271.691 188.54 271.635 188.509 271.585C188.519 271.578 188.527 271.568 188.533 271.557C188.538 271.545 188.541 271.533 188.541 271.521C188.541 271.508 188.538 271.496 188.533 271.485C188.527 271.473 188.519 271.464 188.509 271.456C186.417 269.59 183.87 268.307 181.125 267.736C179.52 267.43 177.249 267.872 177.045 269.865C176.8 271.742 178.738 272.68 180.288 272.925ZM178.439 271.198C176.399 268.586 180.295 268.362 181.465 268.634C182.223 268.824 182.969 269.065 183.695 269.355C185.182 269.971 186.637 270.664 188.054 271.429C186.762 271.558 185.49 271.789 184.205 271.966C182.668 272.17 179.581 272.632 178.439 271.198Z" fill="#263238"/>
<path d="M111.058 128.656C111.058 128.656 146.329 188.659 147.274 192.875C148.723 199.349 156.4 263.276 156.4 263.276L193.12 262.596C193.12 262.596 186.796 206.231 180.805 187.66C176.494 174.284 145.364 129.921 145.364 129.921L111.058 128.656Z" fill="#37474F"/>
<path d="M189.781 256.993C184.511 256.952 165.832 256.741 158.814 257.394C158.76 257.394 158.767 257.489 158.814 257.496C161.228 257.843 184.505 257.305 189.775 257.135C189.786 257.139 189.797 257.141 189.809 257.139C189.821 257.138 189.832 257.134 189.841 257.127C189.851 257.121 189.859 257.112 189.865 257.102C189.871 257.092 189.874 257.08 189.875 257.069C189.875 257.057 189.873 257.045 189.868 257.034C189.864 257.024 189.856 257.014 189.847 257.007C189.838 257 189.827 256.994 189.816 256.992C189.805 256.989 189.793 256.99 189.781 256.993Z" fill="#263238"/>
<path d="M117.076 134.165C119.388 137.789 121.836 141.339 124.188 144.936C126.541 148.533 128.908 152.131 131.24 155.721C135.891 162.974 140.425 170.275 144.84 177.624C146.995 181.03 148.838 184.624 150.348 188.361C151.726 192.099 152.762 195.955 153.442 199.88C154.163 203.817 154.639 207.795 155.081 211.773C155.534 216.003 156.008 220.235 156.502 224.469C157.468 233.132 158.436 241.795 159.406 250.459C159.521 251.519 159.637 252.58 159.746 253.648C159.746 253.804 159.48 253.831 159.46 253.648C158.379 245.046 157.481 236.41 156.502 227.808C156.012 223.515 155.525 219.224 155.04 214.935C154.584 210.944 154.149 206.945 153.53 202.981C152.963 199.068 152.099 195.203 150.946 191.421C149.677 187.505 147.975 183.741 145.874 180.201C141.624 172.864 137.122 165.656 132.62 158.441C128.119 151.226 123.495 143.95 118.748 136.824C118.164 135.947 117.572 135.069 116.96 134.206C116.912 134.158 117.035 134.097 117.076 134.165Z" fill="#263238"/>
<path d="M122.618 289.198C120.945 289.096 77.7378 271.593 76.541 269.934C76.4877 269.836 76.4641 269.725 76.473 269.614C76.473 268.125 79.4718 262.93 81.9742 256.102C82.1306 255.667 83.2458 253.641 84.7894 250.914C89.0802 243.441 96.5602 230.568 96.5602 230.568L124.801 241.788L111.282 262.018L109.181 266.914C109.181 266.914 122.434 280.616 123.549 282.554C124.665 284.492 124.284 289.293 122.618 289.198Z" fill="#EB9481"/>
<path d="M122.618 289.198C120.945 289.096 77.7378 271.593 76.541 269.934C76.4877 269.836 76.4641 269.725 76.473 269.614C76.473 268.125 79.4718 262.93 81.9742 256.102C82.1306 255.667 83.2458 253.641 84.7894 250.914L111.309 262.018L109.208 266.914C109.208 266.914 122.461 280.616 123.577 282.554C124.692 284.492 124.284 289.293 122.618 289.198Z" fill="white"/>
<path d="M122.618 289.198C120.945 289.096 77.7378 271.593 76.541 269.934C76.0786 269.301 78.0098 263.406 81.981 256.103L109.181 266.921C109.181 266.921 122.434 280.61 123.556 282.561C124.678 284.513 124.284 289.293 122.618 289.198Z" fill="#A6A6A6"/>
<path d="M122.686 287.267C115.688 284.262 87.1691 272.797 80.0223 270.362C79.9611 270.362 79.9475 270.362 80.0223 270.403C86.8971 273.531 115.505 284.765 122.658 287.403C122.794 287.437 122.835 287.328 122.686 287.267Z" fill="#263238"/>
<path d="M121.462 279.97C120.686 279.629 119.848 279.453 119 279.453C118.153 279.453 117.315 279.629 116.539 279.97C115.144 280.581 114.038 281.706 113.452 283.112C113.452 283.152 113.513 283.186 113.533 283.146C114.335 281.842 115.538 280.833 116.961 280.27C118.384 279.707 119.952 279.621 121.428 280.024C121.439 280.021 121.449 280.014 121.456 280.004C121.462 279.994 121.464 279.982 121.462 279.97Z" fill="#263238"/>
<path d="M111.649 268.723C108.841 267.546 105.155 267.234 102.469 268.845C102.367 268.906 102.469 269.049 102.558 269.042C105.552 268.739 108.57 268.755 111.561 269.09C111.607 269.095 111.653 269.083 111.691 269.056C111.729 269.03 111.756 268.99 111.767 268.945C111.777 268.9 111.772 268.853 111.75 268.812C111.728 268.771 111.693 268.739 111.649 268.723Z" fill="#263238"/>
<path d="M113.492 270.45C110.684 269.274 106.998 268.961 104.312 270.573C104.21 270.634 104.312 270.777 104.401 270.77C107.395 270.463 110.413 270.479 113.404 270.818C113.45 270.823 113.496 270.811 113.534 270.784C113.572 270.757 113.599 270.718 113.609 270.673C113.62 270.628 113.614 270.58 113.593 270.539C113.571 270.499 113.535 270.467 113.492 270.45Z" fill="#263238"/>
<path d="M115.341 272.177C112.526 271.001 108.841 270.688 106.161 272.299C106.053 272.361 106.162 272.503 106.243 272.497C109.237 272.189 112.256 272.205 115.246 272.544C115.293 272.552 115.341 272.542 115.381 272.516C115.421 272.49 115.45 272.45 115.462 272.404C115.474 272.358 115.468 272.309 115.446 272.267C115.424 272.225 115.386 272.193 115.341 272.177Z" fill="#263238"/>
<path d="M117.184 273.904C114.369 272.728 110.69 272.415 108.004 274.02C107.895 274.088 108.004 274.231 108.086 274.224C111.08 273.917 114.098 273.933 117.089 274.272C117.136 274.279 117.184 274.269 117.224 274.244C117.264 274.218 117.293 274.178 117.305 274.132C117.317 274.086 117.311 274.037 117.289 273.995C117.266 273.953 117.229 273.92 117.184 273.904Z" fill="#263238"/>
<path d="M84.5104 264.364C81.3348 263.1 79.3628 268.043 82.552 269.308C85.7412 270.573 87.72 265.629 84.5104 264.364Z" fill="#263238"/>
<path d="M117.736 262.399C116.777 260.638 114.512 261.073 113.132 261.951C110.807 263.508 108.931 265.649 107.692 268.159C107.687 268.17 107.684 268.182 107.684 268.194C107.683 268.207 107.686 268.219 107.691 268.23C107.697 268.241 107.704 268.251 107.714 268.259C107.723 268.266 107.735 268.272 107.746 268.275C107.746 268.499 107.896 268.764 108.161 268.71C110.738 268.118 113.56 267.812 115.872 266.452C117.198 265.663 118.64 264.065 117.736 262.399ZM111.854 267.017C110.596 267.336 109.331 267.595 108.086 267.962C109.116 266.722 110.207 265.535 111.357 264.405C111.923 263.866 112.525 263.367 113.159 262.909C114.145 262.229 117.872 260.971 116.92 264.161C116.396 265.922 113.356 266.636 111.854 267.017Z" fill="#263238"/>
<path d="M100.212 266.39C102.524 267.75 105.346 268.07 107.916 268.668C108.181 268.729 108.358 268.464 108.338 268.233C108.35 268.232 108.362 268.227 108.373 268.219C108.383 268.212 108.392 268.202 108.397 268.19C108.403 268.179 108.405 268.166 108.404 268.153C108.403 268.14 108.399 268.128 108.392 268.117C107.155 265.603 105.279 263.457 102.952 261.895C101.592 261.011 99.3139 260.569 98.3483 262.324C97.3827 264.078 98.8583 265.595 100.212 266.39ZM99.1507 264.092C98.2055 260.903 101.925 262.167 102.911 262.854C103.544 263.312 104.144 263.814 104.706 264.357C105.854 265.489 106.943 266.678 107.97 267.92C106.726 267.553 105.461 267.288 104.203 266.968C102.68 266.56 99.6675 265.88 99.1507 264.092Z" fill="#263238"/>
<path d="M113.478 260.889L81.8652 248.125C81.8652 248.125 121.06 190.495 121.346 186.205C121.604 182.41 104.387 149.349 103.714 139.713C102.979 129.309 107.984 121.265 113.492 116.267L146.098 130.132C146.098 130.132 142.657 135.633 137.258 138.7C137.258 138.7 153.979 176.916 153.027 188.666C152.075 200.417 113.478 260.889 113.478 260.889Z" fill="#37474F"/>
<path d="M114.879 254.878C110.309 252.913 111.649 253.41 107.052 251.478C104.808 250.54 90.0522 244.4 87.781 243.89C87.7334 243.89 87.6994 243.958 87.747 243.985C89.7122 245.188 104.591 251.07 106.855 251.968C111.486 253.79 110.173 253.219 114.825 254.987C114.832 254.997 114.841 255.004 114.851 255.009C114.862 255.013 114.874 255.015 114.885 255.014C114.897 255.013 114.908 255.009 114.917 255.003C114.927 254.996 114.935 254.987 114.94 254.977C114.945 254.966 114.948 254.955 114.947 254.943C114.946 254.932 114.943 254.921 114.937 254.911C114.931 254.901 114.922 254.893 114.912 254.887C114.902 254.881 114.891 254.878 114.879 254.878Z" fill="#263238"/>
<path d="M142.603 138C139.209 138.791 135.887 139.869 132.675 141.223C132.662 141.227 132.65 141.234 132.64 141.244C132.63 141.253 132.622 141.264 132.616 141.276C132.61 141.288 132.606 141.302 132.605 141.315C132.604 141.329 132.606 141.343 132.611 141.356C132.615 141.369 132.622 141.38 132.631 141.391C132.64 141.401 132.651 141.409 132.664 141.415C132.676 141.421 132.689 141.425 132.703 141.426C132.717 141.427 132.73 141.425 132.743 141.42C136.075 140.448 139.462 139.537 142.739 138.387C142.991 138.299 142.862 137.945 142.603 138Z" fill="#263238"/>
<path d="M138.72 136.68C138.403 137.244 138.124 137.828 137.883 138.428C137.649 138.884 137.503 139.38 137.455 139.89C137.455 139.992 137.591 140.012 137.652 139.951C137.993 139.543 138.269 139.084 138.468 138.591C138.747 138.054 139.033 137.524 139.298 136.973C139.481 136.572 138.931 136.313 138.72 136.68Z" fill="#263238"/>
<path d="M139.128 133.593C139.332 133.09 139.529 132.594 139.74 132.091C139.951 131.587 140.216 131.071 140.42 130.54C140.42 130.459 140.583 130.54 140.549 130.601C140.345 131.105 140.216 131.635 140.06 132.152C139.903 132.669 139.726 133.185 139.556 133.702C139.237 134.661 138.876 135.613 138.434 136.545C138.969 136.571 139.504 136.478 139.998 136.273C140.504 135.949 140.892 135.473 141.107 134.913C141.392 134.355 141.658 133.784 141.95 133.226C142.31 132.623 142.613 131.988 142.854 131.329C142.854 131.247 143.018 131.329 142.984 131.39C142.54 132.784 141.959 134.13 141.25 135.409C140.944 135.905 140.706 136.429 140.148 136.619C139.544 136.788 138.913 136.832 138.292 136.749C138.21 136.749 138.115 136.749 138.142 136.626C138.42 135.6 138.749 134.587 139.128 133.593Z" fill="#263238"/>
<path d="M137.741 139.945C138.904 142.4 139.924 144.848 141.005 147.296C142.087 149.744 143.045 152.11 144.018 154.545C145.963 159.454 147.703 164.459 149.233 169.505C149.988 172.007 150.689 174.53 151.314 177.073C152.003 179.608 152.508 182.19 152.824 184.798C153.097 187.401 152.866 190.033 152.144 192.55C151.394 195.037 150.432 197.456 149.267 199.778C148.553 201.247 148.315 201.05 148.655 200.309C149.628 198.201 152.178 191.815 151.994 186.45C151.845 183.882 151.449 181.333 150.811 178.841C150.217 176.271 149.548 173.721 148.805 171.191C147.357 166.2 145.636 161.311 143.868 156.428C142.875 153.708 141.828 150.988 140.808 148.268C139.788 145.548 138.768 143.046 137.626 140.04C137.592 139.918 137.707 139.87 137.741 139.945Z" fill="#263238"/>
<path d="M113.744 131.833C114.308 131.622 115.104 131.969 115.675 132.064C116.415 132.189 117.162 132.264 117.912 132.288C118.654 132.314 119.397 132.289 120.136 132.214C120.88 132.194 121.609 132.001 122.264 131.649C123.34 130.866 124.262 129.89 124.984 128.773C125.845 127.631 126.556 126.383 127.099 125.06C127.099 124.978 127.242 125.06 127.215 125.114C126.977 125.869 126.8 126.631 126.535 127.372C126.241 128.068 125.891 128.739 125.487 129.378C124.833 130.663 123.864 131.762 122.672 132.574C121.36 133.322 119.673 133.254 118.211 133.193C117.363 133.143 116.52 133.032 115.689 132.86C115.09 132.73 114.084 132.635 113.703 132.112C113.685 132.091 113.672 132.068 113.664 132.042C113.656 132.016 113.654 131.989 113.658 131.963C113.662 131.936 113.672 131.911 113.687 131.888C113.701 131.866 113.721 131.847 113.744 131.833Z" fill="#263238"/>
<path d="M90.8886 242.081C96.0838 234.211 101.184 226.278 106.189 218.281C111.193 210.284 116.13 202.226 120.999 194.107C122.162 192.169 123.501 190.238 124.249 188.089C125.065 185.756 124.603 183.492 123.869 181.207C122.482 177.039 120.861 172.952 119.013 168.967C117.191 164.948 115.226 160.998 113.295 157.033C111.363 153.069 109.344 149.152 107.855 145.018C106.495 141.067 105.944 136.973 107.005 132.88C108.065 128.786 110.35 125.168 112.737 121.762C113.363 120.864 114.009 119.973 114.641 119.042C114.689 118.974 114.791 119.042 114.743 119.123C112.111 122.673 109.548 126.433 108.004 130.602C107.215 132.656 106.774 134.828 106.699 137.028C106.686 139.26 107.032 141.481 107.725 143.603C109.004 147.738 111.023 151.648 112.907 155.537C114.791 159.427 116.803 163.452 118.66 167.458C120.575 171.489 122.277 175.617 123.76 179.827C124.392 181.697 125.12 183.655 125.065 185.661C125.018 187.858 123.971 189.836 122.883 191.686C118.123 199.744 113.247 207.707 108.283 215.622C103.319 223.537 98.2122 231.452 93.0442 239.286L91.0858 242.244C90.9838 242.366 90.807 242.224 90.8886 242.081Z" fill="#263238"/>
<path d="M147.907 93.4799C150.851 99.9399 165.723 108.841 172.686 109.8C177.691 110.48 192.909 110.725 198.125 109.929C204.245 108.991 199.566 92.5007 195.956 92.9291C186.028 94.0851 177.596 95.377 174.944 95.377C171.707 95.377 154.197 89.7603 152.089 88.9647C146.921 87.0403 146.241 89.8147 147.907 93.4799Z" fill="#EB9481"/>
<path d="M148.002 95.2009C151.729 100.716 164.111 109.733 164.111 109.733L165.832 105.925L171.523 93.3309C171.523 93.3309 160.147 89.7609 152.66 88.1289C151.779 87.9284 150.883 87.801 149.981 87.7481C145.201 87.4897 144.786 90.4409 148.002 95.2009Z" fill="#A1DBED"/>
<path d="M148.002 95.2007C151.729 100.715 164.111 109.732 164.111 109.732L165.832 105.924C161.215 100.559 154.081 92.4331 149.981 87.7615C145.201 87.4895 144.786 90.4407 148.002 95.2007Z" fill="#263238"/>
<path d="M161.881 107.175C162.826 104.857 167.029 95.5203 168.076 93.5755C168.144 93.4395 168.253 93.4531 168.192 93.5755C166.369 98.2185 164.294 102.759 161.976 107.175C161.949 107.257 161.84 107.23 161.881 107.175Z" fill="#263238"/>
<path d="M194.133 93.0997C200.172 92.3109 207.645 90.9577 213.976 93.6437C214.687 93.9226 215.283 94.4328 215.669 95.0921C218.525 96.2481 218.838 97.9413 218.838 97.9413C221.17 99.8317 221.252 101.613 221.252 101.613C221.252 101.613 224.597 102.973 224.087 105.163C223.53 107.584 218.946 105.163 215.614 105.36C207.964 105.836 197.254 108.644 195.044 108.998L194.133 93.0997Z" fill="#EB9481"/>
<path d="M207.251 100.226C209.487 100.073 211.732 100.073 213.969 100.226C216.405 100.531 218.814 101.02 221.177 101.688C221.192 101.693 221.209 101.692 221.224 101.685C221.238 101.678 221.25 101.666 221.255 101.65C221.261 101.635 221.26 101.618 221.253 101.604C221.246 101.589 221.233 101.578 221.218 101.572C216.779 99.8309 211.948 99.3416 207.251 100.158C207.142 100.144 207.142 100.233 207.251 100.226Z" fill="#263238"/>
<path d="M205.829 93.1603C209.562 93.3507 211.895 93.9491 215.648 95.0779V95.0371C211.514 93.3099 209.821 93.1467 205.809 92.9971C205.68 93.0515 205.686 93.1603 205.829 93.1603Z" fill="#263238"/>
<path d="M206.434 106.516C205.462 106.971 205.7 107.481 207.556 107.91C209.413 108.338 217.131 108.467 216.859 111.16C216.587 113.853 205.7 113.513 202.66 112.561C199.621 111.609 195.044 108.998 195.044 108.998C197.2 108.637 202.259 107.27 206.434 106.516Z" fill="#EB9481"/>
<path d="M155.992 103.775C155.944 104.938 155.836 106.121 155.672 107.298C155.672 107.25 155.672 107.209 155.72 107.168C155.944 106.556 156.169 105.931 156.441 105.339C156.441 105.339 156.509 105.339 156.502 105.339C156.371 105.987 156.175 106.621 155.917 107.23C155.795 107.522 155.679 107.808 155.55 108.093C155.468 108.617 155.373 109.134 155.271 109.65C155.067 110.623 154.149 114.757 153.911 115.458C153.87 115.6 153.694 115.566 153.707 115.403C153.755 114.642 154.523 110.337 154.68 109.358C154.983 107.467 155.39 105.595 155.897 103.748C155.931 103.714 155.999 103.741 155.992 103.775Z" fill="#263238"/>
<path d="M148.92 134.695C147.105 135.627 144.766 137.075 134.226 135.001C133.546 134.865 132.906 134.702 132.24 134.505C122.36 131.54 110.48 119.919 109.834 119.096C109.834 119.096 125.535 93.6435 145.616 85.6399C148.098 84.6539 152.205 86.5578 154.456 88.931C155.265 89.781 157.026 96.0303 156.353 101.089C155.68 106.149 150.729 133.763 148.92 134.695Z" fill="#A1DBED"/>
<path d="M147.506 100.858C147.581 101.934 147.431 103.013 147.064 104.027C146.977 102.951 147.128 101.87 147.506 100.858Z" fill="white"/>
<path d="M140.658 118.191C140.701 118.727 140.683 119.265 140.604 119.796C140.538 120.331 140.408 120.856 140.216 121.36C140.169 120.823 140.188 120.282 140.271 119.749C140.34 119.216 140.47 118.694 140.658 118.191Z" fill="white"/>
<path d="M129.023 105.088C129.1 106.166 128.949 107.248 128.581 108.263C128.496 107.185 128.647 106.102 129.023 105.088Z" fill="white"/>
<path d="M151.987 117.308C152.03 117.845 152.012 118.386 151.932 118.919C151.867 119.454 151.737 119.979 151.545 120.483C151.498 119.946 151.516 119.405 151.599 118.872C151.668 118.337 151.798 117.812 151.987 117.308Z" fill="white"/>
<path d="M137.047 102.844C137.582 102.798 138.12 102.814 138.652 102.891C139.187 102.959 139.712 103.092 140.216 103.286C139.14 103.363 138.06 103.212 137.047 102.844Z" fill="white"/>
<path d="M123.842 115.363C124.917 115.287 125.997 115.438 127.011 115.805C125.935 115.891 124.853 115.74 123.842 115.363Z" fill="white"/>
<path d="M139.4 128.915C140.476 128.838 141.555 128.989 142.569 129.357C141.493 129.442 140.411 129.291 139.4 128.915Z" fill="white"/>
<path d="M119.769 123.992C120.844 123.916 121.924 124.067 122.937 124.434C121.862 124.519 120.78 124.368 119.769 123.992Z" fill="white"/>
<path d="M147.403 88.6724C148.479 88.5966 149.558 88.7472 150.572 89.1144C149.497 89.1902 148.417 89.0397 147.403 88.6724Z" fill="white"/>
<path d="M143.562 93.0107C143.218 93.424 142.825 93.7939 142.392 94.1123C141.971 94.4382 141.515 94.7164 141.032 94.9419C141.374 94.5313 141.762 94.1617 142.188 93.8403C142.614 93.5133 143.074 93.235 143.562 93.0107Z" fill="white"/>
<path d="M122.624 105.339C122.276 105.749 121.881 106.116 121.448 106.434C121.031 106.766 120.574 107.044 120.088 107.263C120.438 106.855 120.832 106.488 121.264 106.168C121.682 105.838 122.139 105.559 122.624 105.339Z" fill="white"/>
<path d="M148.771 110.901C148.423 111.313 148.028 111.683 147.594 112.003C147.176 112.334 146.72 112.612 146.234 112.833C146.582 112.421 146.977 112.051 147.411 111.731C147.831 111.404 148.287 111.125 148.771 110.901Z" fill="white"/>
<path d="M131.839 121.564C131.491 121.976 131.096 122.346 130.662 122.666C130.243 122.996 129.787 123.274 129.302 123.496C129.65 123.084 130.045 122.714 130.479 122.394C130.899 122.067 131.355 121.788 131.839 121.564Z" fill="white"/>
<path d="M155.258 96.3359C154.91 96.7477 154.515 97.1174 154.082 97.4375C153.66 97.7634 153.204 98.0416 152.722 98.2671C153.07 97.8553 153.464 97.4856 153.898 97.1655C154.317 96.8359 154.773 96.5574 155.258 96.3359Z" fill="white"/>
<path d="M154.904 108.692C154.493 108.344 154.123 107.949 153.803 107.515C153.472 107.097 153.193 106.641 152.973 106.155C153.386 106.499 153.756 106.892 154.075 107.325C154.4 107.749 154.678 108.208 154.904 108.692Z" fill="white"/>
<path d="M117.164 117.205C116.752 116.857 116.383 116.463 116.063 116.029C115.735 115.609 115.457 115.152 115.233 114.669C115.645 115.017 116.014 115.412 116.335 115.845C116.664 116.264 116.943 116.721 117.164 117.205Z" fill="white"/>
<path d="M150.314 127.33C149.901 126.987 149.531 126.594 149.213 126.161C148.887 125.739 148.609 125.283 148.383 124.801C148.795 125.149 149.165 125.543 149.485 125.977C149.813 126.394 150.091 126.849 150.314 127.33Z" fill="white"/>
<path d="M133.702 98.4642C133.29 98.1187 132.92 97.7262 132.6 97.2946C132.276 96.8723 131.998 96.4163 131.771 95.9346C132.184 96.2783 132.554 96.6711 132.872 97.1042C133.197 97.5265 133.475 97.9824 133.702 98.4642Z" fill="white"/>
<path d="M133.994 133.097C133.582 132.749 133.213 132.354 132.893 131.921C132.566 131.499 132.288 131.043 132.063 130.561C132.476 130.904 132.846 131.297 133.165 131.73C133.492 132.153 133.77 132.612 133.994 133.097Z" fill="white"/>
<path d="M136.816 112.669C136.408 112.319 136.041 111.925 135.721 111.493C135.389 111.076 135.111 110.619 134.892 110.133C135.301 110.481 135.669 110.876 135.986 111.309C136.317 111.727 136.596 112.184 136.816 112.669Z" fill="white"/>
<path d="M150.777 95.7104C148.213 95.2344 145.806 89.9372 145.5 86.374C145.5 86.1292 146.697 84.1912 148.064 81.7636C148.893 80.288 149.77 78.622 150.471 77.0444C150.614 76.7248 151.45 77.806 151.45 77.806L153.272 79.166L159.29 83.7832C157.857 85.5029 156.64 87.3914 155.666 89.4068C155.57 89.6252 155.497 89.8532 155.448 90.0868C155.446 90.1253 155.446 90.1639 155.448 90.2024C155.074 91.5488 153.245 96.166 150.777 95.7104Z" fill="#EB9481"/>
<path d="M155.448 90.1211C155.445 90.1596 155.445 90.1982 155.448 90.2367C155.091 90.1319 154.743 89.9977 154.408 89.8355C147.819 86.7483 150.722 77.9219 150.722 77.9219L153.306 79.2003L159.324 83.8175C157.891 85.5371 156.674 87.4257 155.7 89.4411C155.592 89.6581 155.508 89.8861 155.448 90.1211Z" fill="#263238"/>
<path d="M166.206 64.9951C166.206 64.9951 169.218 66.9059 169.232 70.3059C169.245 73.7059 167.872 77.0311 167.586 77.1535C167.3 77.2759 166.206 64.9951 166.206 64.9951Z" fill="#263238"/>
<path d="M151.259 66.7632C149.451 70.3332 149.546 81.5872 151.803 84.484C155.081 88.6864 161.391 90.1348 165.206 85.98C168.899 81.9544 168.518 67.2936 165.886 64.56C162.058 60.5208 153.939 61.4796 151.259 66.7632Z" fill="#EB9481"/>
<path d="M160.861 75.7725C160.861 75.7725 160.799 75.8133 160.806 75.8405C160.847 76.6089 160.765 77.4929 160.079 77.7649C160.079 77.7649 160.079 77.8125 160.079 77.8057C160.929 77.6697 161.024 76.4933 160.861 75.7725Z" fill="#263238"/>
<path d="M160.16 74.9906C158.923 74.9226 158.882 77.3978 160.031 77.459C161.18 77.5202 161.194 75.045 160.16 74.9906Z" fill="#263238"/>
<path d="M165.057 75.7461C165.057 75.7461 165.118 75.7461 165.118 75.8141C165.077 76.5825 165.166 77.4665 165.859 77.7317C165.859 77.7317 165.859 77.7793 165.859 77.7725C165.002 77.6433 164.9 76.4669 165.057 75.7461Z" fill="#263238"/>
<path d="M165.757 74.9567C166.988 74.8819 167.049 77.3571 165.907 77.4251C164.764 77.4931 164.723 75.0179 165.757 74.9567Z" fill="#263238"/>
<path d="M159.386 73.1076C159.711 73.0152 160.031 72.9062 160.344 72.7812C160.702 72.7166 161.027 72.5348 161.269 72.2644C161.328 72.1655 161.353 72.0499 161.339 71.9356C161.326 71.8212 161.275 71.7146 161.194 71.632C161.01 71.4921 160.792 71.4039 160.563 71.3764C160.333 71.3489 160.101 71.3832 159.889 71.4756C159.43 71.5985 159.033 71.8867 158.774 72.2848C158.722 72.3796 158.698 72.4871 158.706 72.5948C158.713 72.7024 158.752 72.8057 158.816 72.8923C158.881 72.9789 158.968 73.0452 159.069 73.0834C159.17 73.1215 159.28 73.13 159.386 73.1076Z" fill="#263238"/>
<path d="M166.6 74.2024C166.269 74.1285 165.943 74.0377 165.621 73.9304C165.263 73.883 164.93 73.718 164.676 73.4612C164.61 73.3667 164.579 73.2527 164.586 73.1379C164.593 73.0231 164.639 72.9142 164.717 72.8288C164.892 72.6789 165.104 72.5789 165.332 72.5395C165.559 72.5 165.793 72.5224 166.009 72.6044C166.474 72.7008 166.886 72.9676 167.165 73.3524C167.223 73.4435 167.253 73.5496 167.252 73.6577C167.252 73.7658 167.219 73.8713 167.159 73.9614C167.1 74.0515 167.015 74.1222 166.916 74.165C166.816 74.2078 166.707 74.2208 166.6 74.2024Z" fill="#263238"/>
<path d="M159.12 83.0416C159.304 83.2252 159.481 83.47 159.76 83.4972C160.045 83.497 160.328 83.4368 160.589 83.3204C160.589 83.3204 160.637 83.3204 160.589 83.3612C160.478 83.5107 160.328 83.627 160.155 83.6977C159.983 83.7683 159.794 83.7907 159.61 83.7624C159.455 83.72 159.315 83.633 159.209 83.5122C159.102 83.3913 159.034 83.2419 159.012 83.0824C159.006 83.068 159.007 83.052 159.013 83.038C159.019 83.0239 159.031 83.013 159.046 83.0076C159.06 83.0022 159.076 83.0027 159.09 83.0091C159.104 83.0155 159.115 83.0272 159.12 83.0416Z" fill="#263238"/>
<path d="M163.568 79.7649C163.568 79.7649 163.602 80.9073 163.568 81.4445C162.523 81.3336 161.467 81.3702 160.433 81.5533C160.188 81.6077 160.215 81.4105 160.494 81.2813C161.327 80.9004 162.256 80.7772 163.16 80.9277C163.214 80.7849 163.071 79.1597 163.16 79.1665C163.571 79.2472 163.969 79.3845 164.343 79.5745C164.343 77.1809 163.962 74.8145 163.996 72.4209C163.996 72.3393 164.125 72.3257 164.139 72.4209C164.622 74.953 164.85 77.5273 164.819 80.1049C164.826 80.3973 163.772 79.8737 163.568 79.7649Z" fill="#263238"/>
<path d="M162.037 81.0364C161.766 81.7494 161.263 82.3505 160.609 82.7432C159.582 83.158 159.249 82.2264 160.283 81.3832C160.825 81.1092 161.432 80.9892 162.037 81.0364Z" fill="#263238"/>
<path d="M160.97 82.5322C160.861 82.6206 160.739 82.6917 160.609 82.743C159.664 83.1238 159.29 82.369 160.052 81.6074C160.568 81.6482 161.16 81.8386 160.97 82.5322Z" fill="#FF99BA"/>
<path d="M150.742 76.3849C151.987 76.7657 153.415 73.0257 153.823 71.6249C154.176 70.3601 154.584 66.3413 154.646 66.0625C154.707 65.7837 160.086 69.6189 163.2 68.7077C166.314 67.7965 168.429 64.9745 168.477 63.6621C168.524 62.3497 164.628 59.0177 161.262 58.8477C157.896 58.6777 153.333 62.9277 153.333 62.9277C153.884 62.3023 154.385 61.6337 154.829 60.9285C154.775 60.7789 152.599 61.6493 152.198 63.1997C152.198 63.1997 152.633 61.2481 152.47 61.2141C152.306 61.1801 150.613 62.8461 150.994 64.1109C150.994 64.1109 149.036 65.8041 148.859 67.6605C148.682 69.5169 149.28 75.9361 150.742 76.3849Z" fill="#263238"/>
<path d="M165.43 68.0003C164.504 68.5025 163.507 68.8603 162.472 69.0611C161.312 69.1647 160.143 68.9777 159.072 68.5171C157.994 68.1005 156.992 67.5076 156.108 66.7627C155.326 66.1235 154.625 65.3415 153.789 64.7703C153.578 64.6207 153.34 64.9267 153.469 65.1171C154.865 67.0882 156.858 68.557 159.154 69.3059C160.22 69.6536 161.359 69.7186 162.458 69.4945C163.557 69.2704 164.579 68.765 165.424 68.0275C165.424 68.0275 165.444 68.0003 165.43 68.0003Z" fill="#263238"/>
<path d="M152.042 76.0517C152.042 76.0517 150.11 72.1349 148.37 72.7673C146.629 73.3997 147.69 78.8193 149.478 79.8121C149.697 79.9539 149.942 80.0499 150.199 80.0945C150.457 80.1391 150.72 80.1313 150.974 80.0716C151.228 80.0119 151.467 79.9015 151.678 79.7471C151.888 79.5927 152.065 79.3974 152.198 79.1729L152.042 76.0517Z" fill="#EB9481"/>
<path d="M148.716 74.3105C148.716 74.3105 148.675 74.3105 148.716 74.3649C149.953 75.0993 150.457 76.4049 150.756 77.7649C150.7 77.621 150.613 77.491 150.501 77.3839C150.39 77.2768 150.256 77.1952 150.11 77.1448C149.964 77.0944 149.808 77.0763 149.655 77.0918C149.501 77.1073 149.352 77.156 149.219 77.2345C149.178 77.2345 149.219 77.3093 149.219 77.3093C149.462 77.2715 149.711 77.3101 149.932 77.4197C150.152 77.5293 150.333 77.7046 150.45 77.9213C150.645 78.2845 150.8 78.6675 150.912 79.0637C150.953 79.1929 151.177 79.1589 151.157 79.0161C151.449 77.3229 150.497 74.7593 148.716 74.3105Z" fill="#263238"/>
<path d="M139.291 93.5414C137.931 101.246 146.282 127.201 151.633 132.05C159.596 139.258 174.318 143.997 179.656 145.541C181.982 146.221 188.414 129.853 186.062 128.772C181.023 126.481 165.369 121.585 163.88 120.361C162.391 119.137 153.415 106.169 149.416 98.7026C144.065 88.6522 139.964 89.645 139.291 93.5414Z" fill="#EB9481"/>
<path d="M182.098 127.33C182.098 127.33 189.047 129.105 193.528 130.472C196.031 131.24 200.206 132.933 201.79 134.334C204.157 136.435 212.711 146.717 210.263 148.845C208.046 150.776 201.818 141.005 201.818 141.005C201.818 141.005 208.971 150.307 205.898 152.136C202.824 153.966 197.2 141.991 197.2 141.991C197.2 141.991 204.333 151.715 200.845 153.095C198.207 154.136 192.549 143.575 192.549 143.575C192.549 143.575 198.628 151.973 195.949 153.163C192.998 154.482 187.17 145.058 187.17 145.058C179.881 146.941 175.61 144.854 172.802 143.018C172.142 142.569 182.098 127.33 182.098 127.33Z" fill="#EB9481"/>
<path d="M199.546 137.626C200.43 138.686 201.328 139.761 202.11 140.896C202.892 142.032 203.633 143.202 204.306 144.405C205.218 145.962 205.949 147.618 206.482 149.342C205.313 146.35 202.572 142.236 201.79 141.1C201.008 139.965 200.281 138.788 199.506 137.653C199.485 137.626 199.526 137.598 199.546 137.626Z" fill="#263238"/>
<path d="M195.391 140.38C196.901 141.576 200.063 146.024 201.28 149.009C201.335 149.131 201.28 149.124 201.192 149.009C200.24 147.533 196.377 141.821 195.357 140.4C195.337 140.38 195.371 140.359 195.391 140.38Z" fill="#263238"/>
<path d="M191.399 142.12C193.275 144.087 194.757 146.396 195.765 148.92C195.813 149.042 195.717 149.022 195.643 148.92C194.235 146.628 193.147 144.84 191.325 142.181C191.297 142.12 191.359 142.059 191.399 142.12Z" fill="#263238"/>
<path d="M146.88 94.1053C140.672 85.3265 136.959 88.5769 138.203 98.1105C139.373 107.025 142.494 117.647 142.494 117.647L158.134 110.058C158.134 110.058 150.831 99.7289 146.88 94.1053Z" fill="#A1DBED"/>
<path d="M150.654 97.5605C150.86 98.0564 151.009 98.5743 151.096 99.1041C151.192 99.6357 151.226 100.176 151.198 100.716C150.994 100.217 150.848 99.6971 150.763 99.1653C150.662 98.6368 150.625 98.0979 150.654 97.5605Z" fill="white"/>
<path d="M141.386 102.898C142.384 102.492 143.458 102.306 144.534 102.354C144.038 102.558 143.52 102.704 142.991 102.789C142.462 102.89 141.923 102.927 141.386 102.898Z" fill="white"/>
<path d="M141.787 89.2441C141.366 90.2379 140.738 91.1304 139.944 91.8621C140.365 90.8684 140.994 89.9758 141.787 89.2441Z" fill="white"/>
<path d="M155.04 106.999C154.834 107.496 154.571 107.969 154.258 108.407C153.953 108.85 153.597 109.256 153.197 109.617C153.618 108.623 154.247 107.731 155.04 106.999Z" fill="white"/>
<path d="M144.16 112.323C143.661 112.119 143.189 111.857 142.752 111.541C142.309 111.237 141.902 110.88 141.542 110.48C142.536 110.902 143.428 111.53 144.16 112.323Z" fill="white"/>
<path d="M148.92 96.751C149.757 97.9002 150.62 99.0222 151.477 100.151C151.259 99.5798 151.069 99.0018 150.906 98.417H150.947C151.117 98.8658 151.314 99.3078 151.477 99.777L151.722 100.457C151.743 100.503 151.761 100.551 151.776 100.6C152.456 101.477 153.136 102.354 153.762 103.252C154.53 104.326 155.271 105.414 156.019 106.502C156.767 107.59 157.522 108.943 158.331 110.038C158.406 110.133 156.971 110.718 156.815 110.793C156.659 110.868 156.577 110.739 156.727 110.691C156.876 110.643 158.019 109.943 158.032 109.929C157.284 108.828 156.421 107.815 155.639 106.747C154.857 105.679 154.081 104.612 153.327 103.531C151.797 101.327 150.396 99.0426 148.873 96.8326L148.92 96.751Z" fill="#263238"/>
<path d="M138.571 104.421C138.809 104.883 139.067 105.339 139.251 105.815L139.509 106.407C139.149 104.713 138.829 103.007 138.455 101.313C139.176 104.033 139.903 106.815 140.57 109.575C141.202 112.214 141.971 114.879 142.338 117.572C142.812 117.364 143.304 117.198 143.807 117.076C143.302 117.403 142.758 117.665 142.188 117.858C141.369 115.12 140.688 112.342 140.148 109.535C139.978 108.773 139.822 108.011 139.659 107.25C139.482 106.787 139.271 106.345 139.06 105.89C138.849 105.434 138.659 104.924 138.469 104.441C138.509 104.414 138.557 104.387 138.571 104.421Z" fill="#263238"/>
<path d="M142.726 115.023C144.902 113.799 153.993 109.093 156.027 108.223C156.169 108.162 156.244 108.223 156.101 108.318C151.786 110.826 147.337 113.096 142.773 115.118C142.719 115.132 142.665 115.057 142.726 115.023Z" fill="#263238"/>
<path d="M391.898 293.794H184.715L214.669 123.896H421.852L391.898 293.794Z" fill="#A1DBED"/>
<path d="M285.58 106.298H217.777L214.669 123.896H287.232L285.58 106.298Z" fill="#A1DBED"/>
<g opacity="0.1">
<path d="M391.898 293.794H184.715L214.669 123.896H421.852L391.898 293.794Z" fill="black"/>
<path d="M285.579 106.298H217.777L214.669 123.896H287.232L285.579 106.298Z" fill="black"/>
</g>
<path d="M210.46 113.479C210.007 111.533 210.007 109.508 210.46 107.562C210.914 109.508 210.914 111.533 210.46 113.479Z" fill="#263238"/>
<path d="M204.436 115.22C203.743 114.502 203.147 113.698 202.661 112.826C202.151 111.974 201.751 111.06 201.471 110.106C202.165 110.82 202.762 111.623 203.246 112.493C203.754 113.349 204.154 114.265 204.436 115.22Z" fill="#263238"/>
<path d="M200.083 119.741C198.173 119.16 196.421 118.148 194.963 116.783C195.916 117.06 196.83 117.458 197.683 117.966C198.554 118.455 199.36 119.052 200.083 119.741Z" fill="#263238"/>
<path d="M198.56 125.834C196.614 126.288 194.59 126.288 192.644 125.834C194.59 125.381 196.614 125.381 198.56 125.834Z" fill="#263238"/>
<path d="M200.328 131.859C199.607 132.548 198.803 133.144 197.934 133.634C197.082 134.143 196.168 134.54 195.214 134.817C195.932 134.125 196.737 133.528 197.608 133.043C198.459 132.532 199.374 132.134 200.328 131.859Z" fill="#263238"/>
<path d="M204.843 136.204C204.264 138.118 203.252 139.872 201.885 141.331C202.162 140.377 202.562 139.462 203.075 138.611C203.56 137.737 204.154 136.928 204.843 136.204Z" fill="#263238"/>
<path d="M210.936 137.707C211.173 138.675 211.287 139.669 211.276 140.665C211.291 141.662 211.176 142.656 210.936 143.623C210.692 142.656 210.578 141.662 210.596 140.665C210.585 139.669 210.699 138.675 210.936 137.707Z" fill="#263238"/>
<path d="M216.961 136C217.653 136.718 218.25 137.522 218.736 138.394C219.247 139.245 219.644 140.159 219.919 141.114C218.552 139.654 217.54 137.9 216.961 135.986V136Z" fill="#263238"/>
<path d="M221.306 131.444C222.26 131.719 223.175 132.117 224.026 132.628C224.897 133.113 225.702 133.71 226.42 134.402C225.466 134.128 224.551 133.73 223.7 133.219C222.829 132.733 222.024 132.137 221.306 131.444Z" fill="#263238"/>
<path d="M222.809 125.352C224.757 124.898 226.784 124.898 228.732 125.352C226.784 125.805 224.757 125.805 222.809 125.352Z" fill="#263238"/>
<path d="M221.068 119.327C221.788 118.639 222.592 118.045 223.462 117.559C224.312 117.043 225.226 116.643 226.182 116.369C224.723 117.736 222.968 118.748 221.055 119.327H221.068Z" fill="#263238"/>
<path d="M216.546 114.982C216.826 114.029 217.223 113.116 217.729 112.262C218.215 111.391 218.811 110.586 219.504 109.868C219.229 110.822 218.832 111.737 218.321 112.588C217.835 113.459 217.238 114.264 216.546 114.982Z" fill="#263238"/>
<path d="M391.592 293.794H183.967L154.482 130.063H362.114L391.592 293.794Z" fill="#A1DBED"/>
<path d="M226.433 230.153C231.199 230.153 235.063 226.29 235.063 221.524C235.063 216.758 231.199 212.895 226.433 212.895C221.668 212.895 217.804 216.758 217.804 221.524C217.804 226.29 221.668 230.153 226.433 230.153Z" fill="#263238"/>
<path d="M294.651 230.153C299.416 230.153 303.28 226.29 303.28 221.524C303.28 216.758 299.416 212.895 294.651 212.895C289.885 212.895 286.021 216.758 286.021 221.524C286.021 226.29 289.885 230.153 294.651 230.153Z" fill="#263238"/>
<path d="M272.938 231.533L272.462 230.629C272.422 230.547 267.961 222.306 258.992 222.306C250.832 222.306 248.792 230.064 248.737 230.398L248.492 231.384L246.514 230.908L246.752 229.915C246.752 229.82 249.186 220.266 258.992 220.266C269.192 220.266 274.067 229.296 274.271 229.684L274.747 230.581L272.938 231.533Z" fill="#263238"/>
<path d="M377.883 220.864L377.74 220.184C378.182 220.089 378.617 219.987 379.053 219.871L379.223 220.551C378.76 220.667 378.332 220.769 377.883 220.864Z" fill="#263238"/>
<path d="M381.854 219.77L381.636 219.131C382.486 218.838 383.337 218.519 384.159 218.172L384.425 218.798C383.588 219.151 382.724 219.478 381.854 219.77ZM386.92 217.601L386.614 217.002C387.41 216.588 388.205 216.139 388.96 215.642L389.314 216.22C388.539 216.758 387.729 217.213 386.92 217.601ZM391.599 214.724L391.197 214.173C391.932 213.636 392.639 213.072 393.305 212.494L393.754 213.004C393.04 213.623 392.36 214.201 391.592 214.752L391.599 214.724ZM395.746 211.107L395.25 210.638C395.876 209.958 396.467 209.278 397.011 208.598L397.549 209.012C396.984 209.76 396.379 210.461 395.76 211.134L395.746 211.107ZM399.113 206.755L398.535 206.394C399.005 205.635 399.423 204.844 399.786 204.028L400.411 204.307C400.027 205.158 399.591 205.984 399.106 206.782L399.113 206.755ZM401.363 201.709L400.683 201.519C400.932 200.666 401.116 199.795 401.234 198.914L401.914 199.003C401.801 199.927 401.615 200.841 401.356 201.736L401.363 201.709ZM402.118 196.269H401.438V196.072C401.438 195.249 401.39 194.413 401.309 193.59L401.989 193.522C402.078 194.369 402.124 195.22 402.125 196.072L402.118 196.269ZM400.894 190.945C400.711 190.068 400.484 189.201 400.214 188.347L400.894 188.143C401.173 189.027 401.411 189.925 401.574 190.802L400.894 190.945ZM399.283 185.824C398.956 185.022 398.602 184.199 398.167 183.37L398.779 183.063C399.194 183.907 399.575 184.75 399.908 185.566L399.283 185.824ZM396.903 180.976C396.481 180.235 396.019 179.453 395.543 178.65L396.121 178.29C396.617 179.099 397.086 179.888 397.481 180.643L396.903 180.976ZM394.06 176.359C393.564 175.611 393.061 174.856 392.544 174.101L393.108 173.72C393.625 174.475 394.128 175.23 394.625 175.992L394.06 176.359ZM391 171.857C390.49 171.109 389.973 170.354 389.47 169.606L390.035 169.226C390.538 169.974 391.048 170.728 391.558 171.47L391 171.857ZM387.961 167.328C387.464 166.567 386.981 165.792 386.505 165.016L387.083 164.663C387.559 165.438 388.042 166.2 388.532 166.961L387.961 167.328ZM385.125 162.657C384.662 161.834 384.234 161.018 383.846 160.236L384.459 159.93C384.839 160.705 385.268 161.508 385.716 162.324L385.125 162.657ZM382.711 157.761C382.351 156.911 382.031 156.047 381.732 155.204L382.412 154.986C382.697 155.809 383.017 156.659 383.371 157.496L382.711 157.761ZM380.943 152.572C380.719 151.688 380.521 150.784 380.372 149.852L381.052 149.744C381.201 150.614 381.385 151.498 381.609 152.368L380.943 152.572ZM380.032 147.132C379.964 146.296 379.93 145.453 379.93 144.61V144.385H380.61V144.603C380.61 145.426 380.61 146.255 380.712 147.071L380.032 147.132ZM380.712 141.692L380.032 141.624C380.032 141.441 380.066 141.25 380.086 141.053C380.168 140.326 380.27 139.598 380.392 138.904L381.072 139.02C380.957 139.7 380.855 140.414 380.773 141.128C380.8 141.339 380.8 141.522 380.746 141.713L380.712 141.692ZM381.657 136.402L380.977 136.218C381.229 135.321 381.521 134.444 381.847 133.607L382.48 133.852C382.171 134.694 381.907 135.552 381.691 136.422L381.657 136.402ZM415.541 132.438C415.161 132.438 414.766 132.383 414.379 132.329C413.848 132.254 413.318 132.166 412.794 132.064L412.93 131.384C413.433 131.479 413.957 131.567 414.474 131.642C414.841 131.69 415.215 131.724 415.575 131.744L415.541 132.438ZM418.336 132.227L418.193 131.547C419.047 131.37 419.865 131.053 420.614 130.608L420.968 131.186C420.167 131.682 419.289 132.04 418.37 132.247L418.336 132.227ZM383.615 131.418L383.01 131.098C383.443 130.287 383.922 129.501 384.445 128.745L385.003 129.133C384.506 129.873 384.054 130.643 383.649 131.438L383.615 131.418ZM410.135 131.377C409.257 131.098 408.395 130.774 407.551 130.404L407.83 129.779C408.648 130.142 409.485 130.458 410.339 130.724L410.135 131.377ZM423.055 129.255L422.491 128.874C422.975 128.172 423.262 127.352 423.321 126.501L424.001 126.549C423.943 127.524 423.623 128.466 423.076 129.276L423.055 129.255ZM405.103 129.153C404.308 128.691 403.538 128.184 402.798 127.637L403.199 127.093C403.919 127.624 404.668 128.114 405.443 128.562L405.103 129.153ZM386.675 127.032L386.172 126.576C386.788 125.891 387.444 125.244 388.137 124.638L388.586 125.148C387.919 125.745 387.288 126.381 386.696 127.052L386.675 127.032ZM400.676 125.882C399.999 125.258 399.357 124.598 398.752 123.904L399.262 123.455C399.851 124.129 400.475 124.772 401.132 125.379L400.676 125.882ZM422.811 124.04C422.421 123.262 421.883 122.569 421.226 122L421.675 121.49C422.397 122.114 422.991 122.874 423.423 123.727L422.811 124.04ZM390.701 123.502L390.313 122.945C391.074 122.425 391.862 121.946 392.673 121.51L392.993 122.108C392.211 122.54 391.453 123.012 390.721 123.523L390.701 123.502ZM397.052 121.734C396.794 121.367 396.542 120.993 396.304 120.606L395.42 120.952L395.162 120.327L395.944 120.014C395.821 119.81 395.699 119.606 395.583 119.402L396.175 119.069C396.311 119.307 396.447 119.545 396.59 119.749C396.97 119.613 397.358 119.484 397.753 119.361L397.95 120.041C397.616 120.143 397.27 120.252 396.957 120.368C397.168 120.701 397.385 121.048 397.637 121.34L397.052 121.734ZM419.036 120.565C418.379 120.237 417.697 119.959 416.996 119.735L416.548 119.592L416.745 118.912L417.207 119.062C417.936 119.294 418.645 119.583 419.329 119.926L419.036 120.565ZM400.554 119.348L400.411 118.668C401.289 118.47 402.2 118.307 403.131 118.178L403.233 118.858C402.336 119.001 401.445 119.171 400.575 119.368L400.554 119.348ZM413.95 118.98C413.1 118.831 412.203 118.715 411.285 118.634L411.339 117.954C412.284 118.035 413.202 118.151 414.059 118.307L413.95 118.98ZM405.892 118.586L405.845 117.906C406.654 117.858 407.463 117.831 408.265 117.831H408.599V118.511H408.272C407.504 118.532 406.701 118.552 405.913 118.606L405.892 118.586ZM394.4 116.961C394.033 116.131 393.72 115.268 393.414 114.39L394.094 114.18C394.38 115.036 394.699 115.88 395.053 116.689L394.4 116.961ZM392.68 111.738C392.476 110.861 392.306 109.95 392.176 109.018L392.856 108.923C392.986 109.821 393.149 110.712 393.346 111.575L392.68 111.738ZM391.918 106.298C391.884 105.686 391.864 105.061 391.864 104.435C391.864 104.143 391.864 103.844 391.864 103.551H392.544C392.544 103.844 392.544 104.129 392.544 104.422C392.544 105.034 392.544 105.652 392.591 106.244L391.918 106.298ZM392.727 100.858L392.047 100.79C392.142 99.8927 392.272 98.9747 392.428 98.0703L393.108 98.1859C392.924 99.0903 392.795 99.9607 392.707 100.872L392.727 100.858ZM393.659 95.5475L392.979 95.3843C393.196 94.5071 393.448 93.6231 393.727 92.7391L394.407 92.9499C394.101 93.8407 393.849 94.7043 393.639 95.5611L393.659 95.5475ZM395.291 90.3999L394.659 90.1551C394.992 89.3051 395.339 88.4551 395.753 87.6323L396.365 87.9315C395.957 88.7475 395.597 89.5771 395.271 90.4407L395.291 90.3999ZM397.63 85.5515L397.039 85.2047C397.501 84.4227 397.997 83.6407 398.514 82.8927L399.072 83.2803C398.541 84.0283 398.058 84.7899 397.61 85.5651L397.63 85.5515ZM400.697 81.1247L400.166 80.6963C400.738 80.0163 401.35 79.2955 401.982 78.6563L402.472 79.1255C401.833 79.7647 401.234 80.4447 400.676 81.1383L400.697 81.1247ZM404.396 77.2079L403.941 76.7047C404.621 76.0995 405.3 75.5011 406.028 74.9231L406.45 75.4603C405.722 76.0383 405.028 76.6299 404.376 77.2215L404.396 77.2079ZM408.619 73.8487L408.231 73.2843C408.973 72.7743 409.748 72.2711 410.536 71.7951L410.883 72.3731C410.095 72.8559 409.36 73.3523 408.599 73.8623L408.619 73.8487ZM413.236 71.0403L412.916 70.4419C413.719 70.0135 414.548 69.6055 415.378 69.2247L415.664 69.8435C414.8 70.2311 414.004 70.6391 413.216 71.0539L413.236 71.0403ZM418.153 68.7827L417.901 68.1435C418.758 67.8103 419.621 67.4635 420.478 67.2119L420.696 67.8919C419.832 68.1503 418.975 68.4631 418.132 68.7963L418.153 68.7827Z" fill="#263238"/>
<path d="M423.396 67.0621L423.226 66.3821C424.069 66.1645 424.586 66.0693 424.586 66.0693L424.708 66.7493C424.708 66.7493 424.218 66.8513 423.396 67.0621Z" fill="#263238"/>
<path d="M435.418 62.6689C433.684 57.2969 422.069 59.2281 424.334 66.2525C426.598 73.2769 437.152 68.0477 435.418 62.6689Z" fill="#263238"/>
<path d="M418.017 60.5204C418.105 58.1608 421.383 56.3452 426.021 57.1816C430.658 58.018 435.017 61.146 435.017 61.146C435.017 61.146 430.441 63.9204 425.755 64.4304C421.07 64.9404 417.929 62.8732 418.017 60.5204Z" fill="#EBEBEB"/>
<path d="M435.017 61.132C432.609 61.132 430.209 61.064 427.809 60.9892C425.408 60.9144 423.001 60.792 420.601 60.6016C423.008 60.6016 425.415 60.6628 427.815 60.7376C430.216 60.8124 432.623 60.9348 435.017 61.132Z" fill="#263238"/>
<path d="M422.674 58.4189C424.041 59.0727 425.33 59.8779 426.516 60.8193C425.832 60.4984 425.169 60.1351 424.531 59.7313C423.887 59.3304 423.267 58.8922 422.674 58.4189Z" fill="#263238"/>
<path d="M428.978 60.9082C427.748 61.9052 426.414 62.7669 425 63.4786C426.236 62.4804 427.577 61.6186 428.998 60.9082H428.978Z" fill="#263238"/>
<path d="M429.679 59.582C430.365 59.9115 430.966 60.3957 431.433 60.9964C431.09 60.8345 430.768 60.6313 430.474 60.3912C430.179 60.1527 429.912 59.8812 429.679 59.582Z" fill="#263238"/>
<path d="M422.436 74.4946C423.885 76.3578 427.604 75.909 430.875 72.5226C434.146 69.1362 435.88 64.043 435.88 64.043C435.88 64.043 430.521 64.451 426.435 66.763C422.348 69.075 420.981 72.6246 422.436 74.4946Z" fill="#EBEBEB"/>
<path d="M435.88 64.043C433.921 65.403 432.017 66.9126 430.107 68.3746C428.196 69.8366 426.326 71.3462 424.497 72.9034C426.455 71.5434 428.359 70.0406 430.263 68.5786C432.167 67.1166 434.023 65.607 435.88 64.043Z" fill="#263238"/>
<path d="M427.435 73.4408C427.798 72.7802 428.123 72.0991 428.407 71.4008C428.696 70.7005 428.942 69.9828 429.141 69.252C428.777 69.9119 428.452 70.5932 428.169 71.292C427.882 71.9933 427.637 72.7108 427.435 73.4408Z" fill="#263238"/>
<path d="M431.12 67.7557C429.529 67.6706 427.933 67.755 426.36 68.0073C427.152 68.0549 427.947 68.0549 428.74 68.0073C429.537 67.9684 430.332 67.8844 431.12 67.7557Z" fill="#263238"/>
<path d="M432.433 68.4289C432.614 68.0931 432.756 67.737 432.854 67.3681C432.955 67.0019 433.014 66.6255 433.031 66.2461C432.669 66.9193 432.465 67.6655 432.433 68.4289Z" fill="#263238"/>
<path d="M435.418 62.6688C435.034 62.7935 434.621 62.8014 434.233 62.6915C433.844 62.5817 433.497 62.359 433.235 62.0517C432.973 61.7444 432.808 61.3663 432.761 60.9653C432.714 60.5642 432.788 60.1583 432.972 59.7989C433.156 59.4395 433.442 59.1427 433.795 58.9463C434.148 58.7498 434.551 58.6624 434.953 58.6952C435.356 58.728 435.739 58.8795 436.056 59.1305C436.372 59.3815 436.607 59.7207 436.73 60.1051C436.895 60.6192 436.849 61.1776 436.603 61.6581C436.357 62.1386 435.931 62.502 435.418 62.6688Z" fill="#455A64"/>
<path d="M436.669 66.5522C436.285 66.6764 435.873 66.684 435.485 66.5741C435.096 66.4641 434.75 66.2416 434.488 65.9346C434.226 65.6276 434.061 65.2498 434.014 64.8492C433.967 64.4485 434.04 64.0429 434.224 63.6836C434.407 63.3243 434.693 63.0275 435.045 62.8307C435.397 62.6338 435.8 62.5458 436.202 62.5777C436.604 62.6096 436.988 62.76 437.304 63.01C437.621 63.2599 437.856 63.5981 437.981 63.9818C438.064 64.2367 438.095 64.5055 438.074 64.7727C438.053 65.0399 437.979 65.3002 437.857 65.539C437.735 65.7777 437.568 65.99 437.364 66.1639C437.16 66.3377 436.924 66.4697 436.669 66.5522Z" fill="#455A64"/>
<path d="M213.731 64.8177C213.405 67.941 212.218 70.9124 210.301 73.4002C208.385 75.888 205.815 77.7944 202.878 78.9066C199.942 80.0188 196.754 80.2931 193.67 79.6988C190.587 79.1046 187.729 77.6652 185.416 75.5413L176.936 76.7857L181.179 69.4553C180.209 67.0701 179.795 64.4951 179.969 61.926C180.142 59.3569 180.899 56.8611 182.182 54.6283C183.465 52.3956 185.24 50.4845 187.371 49.0402C189.503 47.596 191.936 46.6566 194.486 46.2934C197.035 45.9302 199.633 46.1528 202.084 46.9442C204.534 47.7356 206.772 49.075 208.627 50.8608C210.482 52.6465 211.906 54.8315 212.791 57.2499C213.675 59.6683 213.996 62.2564 213.731 64.8177Z" fill="white"/>
<path d="M213.731 64.8174C213.412 67.9391 212.235 70.9116 210.331 73.4058C209.4 74.6672 208.279 75.7754 207.006 76.6902C205.761 77.6393 204.387 78.4063 202.926 78.9682C201.464 79.5439 199.927 79.9102 198.363 80.0562C197.581 80.1264 196.795 80.1423 196.01 80.1038C195.223 80.0835 194.438 80.0017 193.664 79.859C190.539 79.284 187.636 77.85 185.28 75.7178L185.477 75.779L177.011 77.0778L176.392 77.173L176.705 76.629L180.921 69.285V69.5774C179.926 67.1481 179.503 64.5227 179.685 61.904C179.866 59.2852 180.648 56.7433 181.968 54.4746C183.287 52.213 185.1 50.279 187.272 48.817C189.44 47.3744 191.907 46.4415 194.488 46.0882C197.068 45.7349 199.695 45.9704 202.171 46.777C204.621 47.6105 206.854 48.9813 208.706 50.789C210.554 52.5922 211.967 54.7926 212.837 57.2232C213.708 59.6539 214.014 62.251 213.731 64.8174ZM213.731 64.8174C214.006 62.2636 213.69 59.6809 212.808 57.2685C211.926 54.8562 210.501 52.6788 208.644 50.9045C206.787 49.1302 204.547 47.8064 202.097 47.0353C199.647 46.2642 197.053 46.0665 194.514 46.4574C192.001 46.8294 189.607 47.7739 187.517 49.2182C185.445 50.6738 183.714 52.5624 182.444 54.7534C181.194 56.9492 180.457 59.3994 180.288 61.9206C180.123 64.4588 180.532 67.0016 181.485 69.3598L181.547 69.5094L181.465 69.6522L177.194 76.969L176.895 76.5202L185.382 75.3302H185.497L185.579 75.405C187.847 77.5164 190.659 78.955 193.698 79.5598C194.456 79.7141 195.224 79.8073 195.997 79.8386C196.768 79.893 197.543 79.893 198.315 79.8386C199.863 79.7138 201.387 79.3775 202.844 78.839C204.304 78.3074 205.679 77.5651 206.924 76.6358C208.192 75.7284 209.315 74.6349 210.256 73.3922C212.185 70.9101 213.388 67.9419 213.731 64.8174Z" fill="#263238"/>
<path d="M188.591 70.9573C188.578 70.7321 188.611 70.5067 188.689 70.295C188.767 70.0833 188.887 69.8899 189.043 69.7266C189.198 69.5634 189.386 69.4339 189.594 69.3461C189.801 69.2584 190.025 69.2142 190.25 69.2165C190.712 69.2165 191.155 69.3999 191.481 69.7263C191.808 70.0528 191.991 70.4956 191.991 70.9573C191.991 71.419 191.808 71.8617 191.481 72.1882C191.155 72.5147 190.712 72.6981 190.25 72.6981C190.025 72.7003 189.801 72.6562 189.594 72.5684C189.386 72.4807 189.198 72.3511 189.043 72.1879C188.887 72.0247 188.767 71.8312 188.689 71.6195C188.611 71.4078 188.578 71.1824 188.591 70.9573ZM189.271 66.9385L188.877 53.4473H191.597L191.202 66.9385H189.271Z" fill="#A1DBED"/>
<path d="M195.058 70.9573C195.045 70.7327 195.078 70.5079 195.155 70.2966C195.233 70.0854 195.352 69.8923 195.507 69.7291C195.662 69.566 195.849 69.4363 196.056 69.3482C196.263 69.26 196.485 69.2152 196.71 69.2165C197.172 69.2165 197.615 69.3999 197.941 69.7263C198.268 70.0528 198.451 70.4956 198.451 70.9573C198.451 71.419 198.268 71.8617 197.941 72.1882C197.615 72.5147 197.172 72.6981 196.71 72.6981C196.485 72.6994 196.263 72.6546 196.056 72.5664C195.849 72.4782 195.662 72.3485 195.507 72.1854C195.352 72.0223 195.233 71.8291 195.155 71.6179C195.078 71.4067 195.045 71.1818 195.058 70.9573ZM195.738 66.9385L195.364 53.4473H198.084L197.69 66.9385H195.738Z" fill="#A1DBED"/>
<path d="M201.518 70.9573C201.505 70.7321 201.538 70.5067 201.616 70.295C201.694 70.0833 201.814 69.8899 201.97 69.7266C202.125 69.5634 202.313 69.4339 202.52 69.3461C202.728 69.2584 202.952 69.2142 203.177 69.2165C203.639 69.2165 204.082 69.3999 204.408 69.7263C204.734 70.0528 204.918 70.4956 204.918 70.9573C204.918 71.419 204.734 71.8617 204.408 72.1882C204.082 72.5147 203.639 72.6981 203.177 72.6981C202.952 72.7003 202.728 72.6562 202.52 72.5684C202.313 72.4807 202.125 72.3511 201.97 72.1879C201.814 72.0247 201.694 71.8312 201.616 71.6195C201.538 71.4078 201.505 71.1824 201.518 70.9573ZM202.198 66.9385L201.803 53.4473H204.523L204.136 66.9385H202.198Z" fill="#A1DBED"/>
</svg>
